<?xml version="1.0" encoding="UTF-8"?>
<svg version="1.1" xmlns="http://www.w3.org/2000/svg" width="264" height="80">
<path d="M0 0 C5.26609651 0.33613382 9.4100244 1.90541621 14.23828125 3.9609375 C18.17867183 5.44346069 22.21420167 6.26722778 26.3359375 7.09375 C29.45338668 8.15423125 30.72200734 9.68050545 33 12 C38.40675754 13.79245766 43.40370369 13.03852991 48.75 11.4375 C53.76448412 9.95771023 57.14500199 10.18645875 62.25 11.25 C67.0220785 12.19585771 67.0220785 12.19585771 71.48828125 10.76171875 C73.53997902 8.95730659 75.27789439 7.11886524 77 5 C81.21726041 0.16557953 81.21726041 0.16557953 85.25 -0.6875 C94.97771694 1.09591477 102.45946859 9.7161126 109.64453125 16.07421875 C110.2382251 16.5849292 110.83191895 17.09563965 111.44360352 17.62182617 C113 19 113 19 114.890625 21.03125 C118.62105514 22.74448458 122.17944816 21.00481364 125.9375 19.8125 C126.73607422 19.57724609 127.53464844 19.34199219 128.35742188 19.09960938 C132.32049342 17.91429966 136.19081138 16.62371475 140 15 C140 15.99 140 16.98 140 18 C140.33 18.66 140.66 19.32 141 20 C137.44803086 25.47003248 132.37596411 28.11073659 126.875 31.3125 C125.49634766 32.13717773 125.49634766 32.13717773 124.08984375 32.97851562 C117.28579193 37 117.28579193 37 115 37 C115.23976562 37.53109375 115.47953125 38.0621875 115.7265625 38.609375 C118.17838765 44.45111492 118.17838765 44.45111492 117.1875 47.5 C116.795625 47.995 116.40375 48.49 116 49 C115.34 49 114.68 49 114 49 C113.79375 49.78375 113.5875 50.5675 113.375 51.375 C112 54 112 54 109.5 55.3125 C105.08096094 56.18052553 100.42785173 57.08981548 96 56 C94.19921875 53.47265625 94.19921875 53.47265625 93 51 C91.98679687 51.49371094 90.97359375 51.98742188 89.9296875 52.49609375 C88.57831522 53.1436263 87.22674198 53.79073956 85.875 54.4375 C85.20984375 54.76298828 84.5446875 55.08847656 83.859375 55.42382812 C79.96061548 57.27765006 76.38764847 58.94553264 72 59 C69.39453125 57.4453125 69.39453125 57.4453125 66.8125 55.125 C65.86503906 54.29871094 64.91757813 53.47242188 63.94140625 52.62109375 C62.97074219 51.75613281 62.00007813 50.89117187 61 50 C55.21951043 45.10404172 49.70438557 40.54193955 43 37 C42.40058594 36.57976563 41.80117188 36.15953125 41.18359375 35.7265625 C35.72917973 31.9139822 30.55872596 30.80778426 24 30 C23.401875 30.78375 22.80375 31.5675 22.1875 32.375 C20 35 20 35 17 37 C12.45257101 36.76066163 8.56662551 35.91107082 4.25 34.5 C-0.64215251 32.92996036 -5.31633275 32.52876274 -10.43359375 32.30859375 C-13 32 -13 32 -16 30 C-15.42365861 25.24518354 -13.44931479 22.02951788 -11 18 C-10.34 18 -9.68 18 -9 18 C-8.9175 17.113125 -8.835 16.22625 -8.75 15.3125 C-7.88906711 11.51004639 -6.49814717 9.93899667 -4 7 C-2.96958573 5.01549844 -1.96314063 3.01800895 -1 1 C-0.67 0.67 -0.34 0.34 0 0 Z " fill="#8D56FA" transform="translate(20,4)"/>
<path d="M0 0 C5.26609651 0.33613382 9.4100244 1.90541621 14.23828125 3.9609375 C18.17867183 5.44346069 22.21420167 6.26722778 26.3359375 7.09375 C29.45338549 8.15423084 30.7107157 9.69232787 33 12 C37.80716407 13.42252814 42.58107663 13.31103984 47.375 11.9375 C51.53099603 10.86267344 51.49856799 11.19798096 55 13 C57.81496741 13.45275278 57.81496741 13.45275278 60.75 13.625 C61.73484375 13.69976562 62.7196875 13.77453125 63.734375 13.8515625 C64.48203125 13.90054687 65.2296875 13.94953125 66 14 C65.34 14.99 64.68 15.98 64 17 C60.375 17.6875 60.375 17.6875 57 18 C57 18.66 57 19.32 57 20 C60.58727128 22.08351615 64.20694042 22.80141379 68.25 23.625 C69.51328125 23.88539062 70.7765625 24.14578125 72.078125 24.4140625 C73.04234375 24.60742188 74.0065625 24.80078125 75 25 C75 25.99 75 26.98 75 28 C75.66 28 76.32 28 77 28 C77 28.99 77 29.98 77 31 C72.46298506 32.45184478 68.81938524 33.23509196 64 33 C64.66 31.68 65.32 30.36 66 29 C68.31 29 70.62 29 73 29 C72.67 28.67 72.34 28.34 72 28 C69.9257003 28.02571704 69.9257003 28.02571704 67.5625 28.3125 C66.75941406 28.39113281 65.95632812 28.46976563 65.12890625 28.55078125 C62.79517085 28.84090883 62.79517085 28.84090883 61 31 C58.34462628 31.56520003 55.70855287 31.73788198 53 32 C58.07476794 33.26305335 62.72796354 34.27036084 68 34 C67.505 34.99 67.505 34.99 67 36 C61.87416389 36.10251672 57.05002222 36.03590199 52 35 C54.29629994 36.14814997 56.07698086 36.30769809 58.625 36.5625 C59.44226563 36.64628906 60.25953125 36.73007812 61.1015625 36.81640625 C62.04128906 36.90728516 62.04128906 36.90728516 63 37 C62.505 37.99 62.505 37.99 62 39 C52.61860346 39.68366452 46.50104237 39.59375817 38.3671875 34.46484375 C33.93734536 31.7236048 29.08445588 30.92444652 24 30 C23.401875 30.78375 22.80375 31.5675 22.1875 32.375 C20 35 20 35 17 37 C12.45257101 36.76066163 8.56662551 35.91107082 4.25 34.5 C-0.64215251 32.92996036 -5.31633275 32.52876274 -10.43359375 32.30859375 C-13 32 -13 32 -16 30 C-15.42365861 25.24518354 -13.44931479 22.02951788 -11 18 C-10.34 18 -9.68 18 -9 18 C-8.9175 17.113125 -8.835 16.22625 -8.75 15.3125 C-7.88906711 11.51004639 -6.49814717 9.93899667 -4 7 C-2.96958573 5.01549844 -1.96314063 3.01800895 -1 1 C-0.67 0.67 -0.34 0.34 0 0 Z " fill="#9871E5" transform="translate(20,4)"/>
<path d="M0 0 C0.969375 0.515625 1.93875 1.03125 2.9375 1.5625 C8.28741215 3.87392249 13.3241529 2.65409596 18.8125 1.3125 C21 1 21 1 22.77734375 1.94140625 C25.49144627 3.23406316 27.75994101 3.41142436 30.75 3.625 C31.73484375 3.69976563 32.7196875 3.77453125 33.734375 3.8515625 C34.48203125 3.90054687 35.2296875 3.94953125 36 4 C35.34 4.99 34.68 5.98 34 7 C30.375 7.6875 30.375 7.6875 27 8 C27 8.66 27 9.32 27 10 C30.58727128 12.08351615 34.20694042 12.80141379 38.25 13.625 C39.51328125 13.88539062 40.7765625 14.14578125 42.078125 14.4140625 C43.04234375 14.60742188 44.0065625 14.80078125 45 15 C45 15.99 45 16.98 45 18 C45.66 18 46.32 18 47 18 C47 18.99 47 19.98 47 21 C42.46298506 22.45184478 38.81938524 23.23509196 34 23 C34.66 21.68 35.32 20.36 36 19 C38.31 19 40.62 19 43 19 C42.67 18.67 42.34 18.34 42 18 C39.9257003 18.02571704 39.9257003 18.02571704 37.5625 18.3125 C36.75941406 18.39113281 35.95632812 18.46976563 35.12890625 18.55078125 C32.79517085 18.84090883 32.79517085 18.84090883 31 21 C28.34462628 21.56520003 25.70855287 21.73788198 23 22 C28.07476794 23.26305335 32.72796354 24.27036084 38 24 C37.67 24.66 37.34 25.32 37 26 C31.87416389 26.10251672 27.05002222 26.03590199 22 25 C24.29629994 26.14814997 26.07698086 26.30769809 28.625 26.5625 C29.85089844 26.68818359 29.85089844 26.68818359 31.1015625 26.81640625 C32.04128906 26.90728516 32.04128906 26.90728516 33 27 C32.67 27.66 32.34 28.32 32 29 C22.60927698 29.68434419 16.49131946 29.59149665 8.3515625 24.453125 C5.36607511 22.60827233 2.38355296 21.87721744 -1 21 C-2.6384035 20.41103142 -4.26341642 19.78382348 -5.875 19.125 C-6.63554688 18.81820312 -7.39609375 18.51140625 -8.1796875 18.1953125 C-10 17 -10 17 -10.7578125 14.8671875 C-10.83773437 14.25101563 -10.91765625 13.63484375 -11 13 C-10.34 13 -9.68 13 -9 13 C-9.0825 12.0925 -9.165 11.185 -9.25 10.25 C-9 7 -9 7 -7.3125 4.625 C-4.61209763 2.72741996 -3.22939919 2.64117787 0 3 C0 2.01 0 1.02 0 0 Z " fill="#B3A3D4" transform="translate(50,14)"/>
<path d="M0 0 C3.196875 -0.0825 6.39375 -0.165 9.6875 -0.25 C10.68612061 -0.28641602 11.68474121 -0.32283203 12.71362305 -0.36035156 C16.90111525 -0.41266885 19.3712156 -0.36665689 23.0546875 1.78125 C25.88491297 5.00929832 26.74542414 7.74164015 27 12 C26.59765625 14.15625 26.59765625 14.15625 26 16.25 C24.86930397 20.49011012 25.15822955 20.4586546 27 24 C27.1875 26.18359375 27.1875 26.18359375 27 28.4375 C26.95875 29.17871094 26.9175 29.91992188 26.875 30.68359375 C25.52319989 34.26224316 23.35279989 36.32569661 20 38 C16.50783085 38.58262872 13.1524369 38.47477014 9.625 38.3125 C6.44875 38.209375 3.2725 38.10625 0 38 C0 25.46 0 12.92 0 0 Z M9 8 C9 10.31 9 12.62 9 15 C12.41656024 15.16677282 12.41656024 15.16677282 16 15 C16.66 14.34 17.32 13.68 18 13 C17.59471099 10.21762345 17.59471099 10.21762345 16 8 C13.66702567 7.95907063 11.33294775 7.95758277 9 8 Z M9 23 C9 25.31 9 27.62 9 30 C12.41656024 30.16677282 12.41656024 30.16677282 16 30 C16.66 29.34 17.32 28.68 18 28 C17.83333333 25.91666667 17.83333333 25.91666667 17 24 C14.29120665 22.64560332 11.99066732 22.93498549 9 23 Z " fill="#915DF7" transform="translate(190,6)"/>
<path d="M0 0 C19.48648649 0 19.48648649 0 25 4 C29.41353172 8.41353172 30.81624684 12.72146079 31.3125 18.875 C31.13063779 24.1692111 29.99138572 28.82971911 26.34765625 32.80078125 C17.78932477 40.38205163 13.88040363 38 0 38 C0 25.46 0 12.92 0 0 Z M8 8 C7.97112186 11.47914941 7.95324313 14.95826831 7.9375 18.4375 C7.92912109 19.43072266 7.92074219 20.42394531 7.91210938 21.44726562 C7.90888672 22.39150391 7.90566406 23.33574219 7.90234375 24.30859375 C7.89710693 25.18314209 7.89187012 26.05769043 7.88647461 26.95874023 C7.77215191 28.99440206 7.77215191 28.99440206 9 30 C14.51979725 29.73082562 14.51979725 29.73082562 19.4375 27.5 C21.74262996 23.81179207 22.19307436 20.31714264 22 16 C20.35301213 11.79103099 18.11286243 9.81731131 14 8 C12.00054864 7.95315712 9.99931355 7.9476042 8 8 Z " fill="#9462F5" transform="translate(223,6)"/>
<path d="M0 0 C9.72771694 1.78341477 17.20946859 10.4036126 24.39453125 16.76171875 C24.9882251 17.2724292 25.58191895 17.78313965 26.19360352 18.30932617 C27.75 19.6875 27.75 19.6875 29.640625 21.71875 C33.37105514 23.43198458 36.92944816 21.69231364 40.6875 20.5 C41.88536133 20.14711914 41.88536133 20.14711914 43.10742188 19.78710938 C47.07049342 18.60179966 50.94081138 17.31121475 54.75 15.6875 C54.75 16.6775 54.75 17.6675 54.75 18.6875 C55.245 19.6775 55.245 19.6775 55.75 20.6875 C55.09 21.3475 54.43 22.0075 53.75 22.6875 C53.75 22.0275 53.75 21.3675 53.75 20.6875 C52.82380859 21.10322266 52.82380859 21.10322266 51.87890625 21.52734375 C46.71611489 23.73547826 42.29095278 25.14267932 36.66015625 25.31640625 C34.18464135 25.7973345 33.37139015 26.80045836 31.75 28.6875 C30.41666667 30.02083333 29.08333333 31.35416667 27.75 32.6875 C25.63143321 31.73779764 23.99064143 30.93907967 22.375 29.25 C20.7399304 27.51317543 20.7399304 27.51317543 18.125 26.4375 C10.49906928 22.4833137 4.11436241 16.39288211 -2.25 10.6875 C-7.83821855 12.54340377 -11.73900075 16.17321288 -16.21484375 19.88671875 C-19.25 21.6875 -19.25 21.6875 -22.56640625 21.58203125 C-23.45199219 21.28683594 -24.33757812 20.99164062 -25.25 20.6875 C-25.58 20.0275 -25.91 19.3675 -26.25 18.6875 C-23.28 18.0275 -20.31 17.3675 -17.25 16.6875 C-16.92 15.3675 -16.59 14.0475 -16.25 12.6875 C-14.578125 10.94140625 -14.578125 10.94140625 -12.5 9.25 C-9.96190702 7.15821467 -7.86424284 5.24529057 -5.6875 2.75 C-3.25 0.6875 -3.25 0.6875 0 0 Z " fill="#AE9ECC" transform="translate(105.25,3.3125)"/>
<path d="M0 0 C6.27 0 12.54 0 19 0 C19 2.64 19 5.28 19 8 C15.37 8 11.74 8 8 8 C8 10.31 8 12.62 8 15 C11.3 15 14.6 15 18 15 C18 17.64 18 20.28 18 23 C14.7 23 11.4 23 8 23 C8 25.31 8 27.62 8 30 C9.051875 29.814375 10.10375 29.62875 11.1875 29.4375 C14.57119882 29.04920669 16.76425888 29.11752515 20 30 C20 32.64 20 35.28 20 38 C13.4 38 6.8 38 0 38 C-0.68795047 32.49639628 -1.08879018 28.06659132 -0.87890625 22.65625 C-0.85529526 22.00168823 -0.83168427 21.34712646 -0.80735779 20.67272949 C-0.73176285 18.61487252 -0.64730285 16.5574959 -0.5625 14.5 C-0.50917445 13.09116809 -0.45643511 11.68231385 -0.40429688 10.2734375 C-0.27528418 6.84873677 -0.13842143 3.42433334 0 0 Z " fill="#905EF4" transform="translate(164,6)"/>
<path d="M0 0 C3.41615452 0.85547399 6.82642569 1.20045382 10.32421875 1.58203125 C9.66421875 2.57203125 9.00421875 3.56203125 8.32421875 4.58203125 C4.69921875 5.26953125 4.69921875 5.26953125 1.32421875 5.58203125 C1.32421875 6.24203125 1.32421875 6.90203125 1.32421875 7.58203125 C4.26142383 9.10502648 7.24108365 10.38303427 10.32421875 11.58203125 C7.7399113 13.29259666 6.64100336 13.63423877 3.52734375 13.12109375 C2.5528125 12.81945313 1.57828125 12.5178125 0.57421875 12.20703125 C-0.410625 11.91054688 -1.39546875 11.6140625 -2.41015625 11.30859375 C-3.1578125 11.06882812 -3.90546875 10.8290625 -4.67578125 10.58203125 C-4.01578125 12.23203125 -3.35578125 13.88203125 -2.67578125 15.58203125 C-5.98013209 16.70580822 -7.72646745 16.47757867 -10.92578125 15.14453125 C-11.6321875 14.85707031 -12.33859375 14.56960937 -13.06640625 14.2734375 C-13.5975 14.04527344 -14.12859375 13.81710938 -14.67578125 13.58203125 C-14.67578125 12.92203125 -14.67578125 12.26203125 -14.67578125 11.58203125 C-15.38863281 11.60523438 -16.10148437 11.6284375 -16.8359375 11.65234375 C-22.55938519 11.76018799 -27.27416939 11.50260436 -32.67578125 9.58203125 C-31.80078125 4.83203125 -31.80078125 4.83203125 -30.67578125 2.58203125 C-24.40578125 2.58203125 -18.13578125 2.58203125 -11.67578125 2.58203125 C-12.00578125 1.92203125 -12.33578125 1.26203125 -12.67578125 0.58203125 C-7.8586386 -1.64126536 -4.91982166 -1.29468991 0 0 Z " fill="#F5F4F5" transform="translate(75.67578125,16.41796875)"/>
<path d="M0 0 C-0.37574583 2.42343236 -0.63219683 3.67587196 -2.50292969 5.32446289 C-3.13618164 5.7033667 -3.76943359 6.08227051 -4.421875 6.47265625 C-5.11796875 6.89740234 -5.8140625 7.32214844 -6.53125 7.75976562 C-7.2634375 8.18966797 -7.995625 8.61957031 -8.75 9.0625 C-9.46671875 9.49626953 -10.1834375 9.93003906 -10.921875 10.37695312 C-12.3143335 11.21780352 -13.71070952 12.052208 -15.11132812 12.87939453 C-16.71826955 13.83284091 -18.30661491 14.81751717 -19.890625 15.80859375 C-22 17 -22 17 -24 17 C-23.76023438 17.53109375 -23.52046875 18.0621875 -23.2734375 18.609375 C-20.82161235 24.45111492 -20.82161235 24.45111492 -21.8125 27.5 C-22.204375 27.995 -22.59625 28.49 -23 29 C-23.66 29 -24.32 29 -25 29 C-25.99 31.475 -25.99 31.475 -27 34 C-28.32 34 -29.64 34 -31 34 C-31 32.68 -31 31.36 -31 30 C-31.66 30 -32.32 30 -33 30 C-35.22656164 25.25645564 -36.46148032 21.27749285 -37 16 C-36.38125 15.54625 -35.7625 15.0925 -35.125 14.625 C-32.94080167 13.02891081 -32.94080167 13.02891081 -31 11 C-29.865625 10.896875 -28.73125 10.79375 -27.5625 10.6875 C-23.84961529 10.3920564 -23.84961529 10.3920564 -22.1875 7.5 C-21.5996875 6.2625 -21.5996875 6.2625 -21 5 C-18.77310858 3.88655429 -17.28265181 3.80356519 -14.8125 3.625 C-9.57098362 3.11013285 -5.08957319 0 0 0 Z " fill="#905CF6" transform="translate(159,24)"/>
<path d="M0 0 C5.20347525 0.61796866 9.26023594 1.93901111 14.08203125 4.08203125 C16.40392661 4.48744155 18.73718469 4.84276119 21.08203125 5.08203125 C21.41203125 6.07203125 21.74203125 7.06203125 22.08203125 8.08203125 C21.17453125 8.10265625 20.26703125 8.12328125 19.33203125 8.14453125 C15.70479394 9.19084971 15.44945976 9.53573793 13.70703125 12.64453125 C13.17078125 13.77890625 12.63453125 14.91328125 12.08203125 16.08203125 C11.42203125 16.08203125 10.76203125 16.08203125 10.08203125 16.08203125 C9.75203125 17.07203125 9.42203125 18.06203125 9.08203125 19.08203125 C9.08203125 18.42203125 9.08203125 17.76203125 9.08203125 17.08203125 C8.09203125 16.75203125 7.10203125 16.42203125 6.08203125 16.08203125 C3.32819202 17.45895087 2.56720024 19.44923167 1.08203125 22.08203125 C-0.23796875 21.42203125 -1.55796875 20.76203125 -2.91796875 20.08203125 C-1.92796875 18.10203125 -0.93796875 16.12203125 0.08203125 14.08203125 C-4.37296875 14.57703125 -4.37296875 14.57703125 -8.91796875 15.08203125 C-7.91796875 11.08203125 -7.91796875 11.08203125 -4.91796875 9.08203125 C-4.54396089 6.75487125 -4.21032142 4.42085263 -3.91796875 2.08203125 C-1.91796875 0.08203125 -1.91796875 0.08203125 0 0 Z " fill="#F3F2F4" transform="translate(22.91796875,6.91796875)"/>
<path d="M0 0 C1.8871875 0.0309375 1.8871875 0.0309375 3.8125 0.0625 C3.8125 1.0525 3.8125 2.0425 3.8125 3.0625 C1.5025 3.3925 -0.8075 3.7225 -3.1875 4.0625 C-3.8475 7.0325 -4.5075 10.0025 -5.1875 13.0625 C-5.8475 13.0625 -6.5075 13.0625 -7.1875 13.0625 C-7.1875 13.7225 -7.1875 14.3825 -7.1875 15.0625 C-6.5275 15.3925 -5.8675 15.7225 -5.1875 16.0625 C-4.1975 16.7225 -3.2075 17.3825 -2.1875 18.0625 C-3.44594278 21.94269859 -4.61166203 24.0036842 -8.1875 26.0625 C-9.1775 26.0625 -10.1675 26.0625 -11.1875 26.0625 C-12.52083333 24.72916667 -13.85416667 23.39583333 -15.1875 22.0625 C-18.16414239 20.42230929 -20.96475194 19.13674935 -24.1875 18.0625 C-22.4859375 17.381875 -22.4859375 17.381875 -20.75 16.6875 C-17.14028308 15.49154194 -17.14028308 15.49154194 -16.1875 13.0625 C-17.5075 13.0625 -18.8275 13.0625 -20.1875 13.0625 C-19.875 11.125 -19.875 11.125 -19.1875 9.0625 C-18.1975 8.7325 -17.2075 8.4025 -16.1875 8.0625 C-16.1875 8.7225 -16.1875 9.3825 -16.1875 10.0625 C-13.47880134 9.38532534 -11.66656973 8.77272925 -10.0703125 6.40625 C-9.73773438 5.7771875 -9.40515625 5.148125 -9.0625 4.5 C-6.62198955 0.02573084 -4.74881474 -0.07784942 0 0 Z " fill="#905CF5" transform="translate(46.1875,13.9375)"/>
<path d="M0 0 C1.32 0.66 2.64 1.32 4 2 C3.01 2.66 2.02 3.32 1 4 C2.093125 4.103125 3.18625 4.20625 4.3125 4.3125 C8.93509434 5.17433962 8.93509434 5.17433962 11 8 C11.99 9.485 11.99 9.485 13 11 C14.03125 10.5875 15.0625 10.175 16.125 9.75 C21.23181136 7.82238426 26.47028222 6.40893024 31.73046875 4.96484375 C34.57785899 4.12457447 37.2691005 3.15716081 40 2 C40 2.99 40 3.98 40 5 C40.495 5.99 40.495 5.99 41 7 C40.34 7.66 39.68 8.32 39 9 C39 8.34 39 7.68 39 7 C38.38253906 7.27714844 37.76507813 7.55429687 37.12890625 7.83984375 C31.96611489 10.04797826 27.54095278 11.45517932 21.91015625 11.62890625 C19.43464135 12.1098345 18.62139015 13.11295836 17 15 C15.66666667 16.33333333 14.33333333 17.66666667 13 19 C10.88143321 18.05029764 9.24064143 17.25157967 7.625 15.5625 C5.95608335 13.7939644 5.95608335 13.7939644 3.125 12.625 C-0.27016848 10.85951239 -2.42467 8.802565 -5 6 C-4.67 5.34 -4.34 4.68 -4 4 C-2.68 4 -1.36 4 0 4 C0 2.68 0 1.36 0 0 Z " fill="#A089CE" transform="translate(120,17)"/>
<path d="M0 0 C0.67546875 0.144375 1.3509375 0.28875 2.046875 0.4375 C2.93890625 0.623125 3.8309375 0.80875 4.75 1 C5.63171875 1.185625 6.5134375 1.37125 7.421875 1.5625 C10.22143965 2.11153675 10.22143965 2.11153675 14 2 C15.34164079 2.2981424 16.67851173 2.62243192 18 3 C18 3.66 18 4.32 18 5 C18.99 4.67 19.98 4.34 21 4 C23.70123106 4.16011121 26.31875231 4.60440608 29 5 C28.01 5.495 28.01 5.495 27 6 C27.66 7.65 28.32 9.3 29 11 C25.69564916 12.12377697 23.9493138 11.89554742 20.75 10.5625 C20.04359375 10.27503906 19.3371875 9.98757812 18.609375 9.69140625 C18.07828125 9.46324219 17.5471875 9.23507813 17 9 C17 8.34 17 7.68 17 7 C16.28714844 7.02320313 15.57429688 7.04640625 14.83984375 7.0703125 C9.11639606 7.17815674 4.40161186 6.92057311 -1 5 C-0.67 3.35 -0.34 1.7 0 0 Z " fill="#E5E2EA" transform="translate(44,21)"/>
<path d="M0 0 C0.99 0.33 1.98 0.66 3 1 C3 2.32 3 3.64 3 5 C3.9075 4.79375 4.815 4.5875 5.75 4.375 C9 4 9 4 10.859375 4.94140625 C13.47546676 6.23513046 15.59640904 6.37504289 18.5 6.5625 C21.80698055 6.78508523 24.7960872 7.17882907 28 8 C29.99963028 8.03845443 32.00051633 8.04544281 34 8 C33.67 8.66 33.34 9.32 33 10 C27.87416389 10.10251672 23.05002222 10.03590199 18 9 C20.29629994 10.14814997 22.07698086 10.30769809 24.625 10.5625 C25.44226563 10.64628906 26.25953125 10.73007812 27.1015625 10.81640625 C27.72804688 10.87699219 28.35453125 10.93757813 29 11 C28.67 11.66 28.34 12.32 28 13 C18.92994351 13.66097578 12.00516903 13.74329128 4.0546875 8.80078125 C0.94416351 6.0746376 0.40593618 4.05936178 0 0 Z " fill="#A792D0" transform="translate(54,30)"/>
<path d="M0 0 C2.475 0.99 2.475 0.99 5 2 C5.33 1.34 5.66 0.68 6 0 C9.25601751 7.21225383 9.25601751 7.21225383 8.1875 10.5 C7.795625 10.995 7.40375 11.49 7 12 C6.34 12 5.68 12 5 12 C4.34 13.65 3.68 15.3 3 17 C1.68 17 0.36 17 -1 17 C-1 15.68 -1 14.36 -1 13 C-1.66 13 -2.32 13 -3 13 C-6 6.5 -6 6.5 -6 2 C-5.01 2 -4.02 2 -3 2 C-1.5393715 4.64738916 -1 5.89448334 -1 9 C0.32 9.33 1.64 9.66 3 10 C3 9.34 3 8.68 3 8 C2.34 8 1.68 8 1 8 C0.34 5.69 -0.32 3.38 -1 1 C-0.67 0.67 -0.34 0.34 0 0 Z " fill="#AAA0BE" transform="translate(129,41)"/>
<path d="M0 0 C5.2592577 0.3356973 9.39566234 1.90741368 14.22265625 3.9453125 C19.02057392 5.76730655 24.00214786 6.86646652 29 8 C29 8.99 29 9.98 29 11 C27.68 11 26.36 11 25 11 C24.505 10.01 24.505 10.01 24 9 C21.88515148 8.41838369 21.88515148 8.41838369 19.375 8.0625 C16.09369375 7.47822182 13.25812701 6.81161671 10.25 5.375 C6.87130143 3.94555061 4.62370908 3.73485056 1 4 C0.566875 5.36125 0.566875 5.36125 0.125 6.75 C-2.25581395 13.62790698 -2.25581395 13.62790698 -5 15 C-5.65555119 17.52733235 -5.65555119 17.52733235 -6 20 C-7.32 19.67 -8.64 19.34 -10 19 C-10.33 20.32 -10.66 21.64 -11 23 C-11.66 22.67 -12.32 22.34 -13 22 C-12.34 20.68 -11.68 19.36 -11 18 C-10.34 18 -9.68 18 -9 18 C-8.9175 17.113125 -8.835 16.22625 -8.75 15.3125 C-7.88906711 11.51004639 -6.49814717 9.93899667 -4 7 C-2.96958573 5.01549844 -1.96314063 3.01800895 -1 1 C-0.67 0.67 -0.34 0.34 0 0 Z " fill="#BFB3D7" transform="translate(20,4)"/>
<path d="M0 0 C10.77860481 5.01952545 19.34746945 13.98343882 28 22 C26.68 22.99 25.36 23.98 24 25 C23.484375 24.05125 22.96875 23.1025 22.4375 22.125 C19.52067674 18.385483 17.56756196 17.8783773 13 17 C13.33 16.34 13.66 15.68 14 15 C13.34 14.34 12.68 13.68 12 13 C12 13.66 12 14.32 12 15 C10.68 14.34 9.36 13.68 8 13 C8 11.35 8 9.7 8 8 C7.38125 7.690625 6.7625 7.38125 6.125 7.0625 C4.75 6.375 3.375 5.6875 2 5 C2 4.34 2 3.68 2 3 C0.35 2.67 -1.3 2.34 -3 2 C-2.01 1.34 -1.02 0.68 0 0 Z " fill="#D4D0DA" transform="translate(108,4)"/>
<path d="M0 0 C1.5625 1.1875 1.5625 1.1875 3 3 C2.78535921 6.01354449 2.41787103 7.55556549 0.3293457 9.77685547 C-1.99747198 11.49512895 -4.32659414 13.20369311 -6.6875 14.875 C-7.8930957 15.78378906 -7.8930957 15.78378906 -9.12304688 16.7109375 C-15.08103399 20.99796012 -15.08103399 20.99796012 -19.51953125 21.0078125 C-22 20 -22 20 -23 18 C-20.03 17.34 -17.06 16.68 -14 16 C-13.67 14.68 -13.34 13.36 -13 12 C-11.328125 10.25390625 -11.328125 10.25390625 -9.25 8.5625 C-5.98743727 5.83978578 -2.95687786 3.04928029 0 0 Z " fill="#DDD8E7" transform="translate(102,4)"/>
<path d="M0 0 C5.21719293 0.61959778 9.35851316 1.7705224 14.08203125 4.08203125 C14.08203125 4.41203125 14.08203125 4.74203125 14.08203125 5.08203125 C11.77203125 5.08203125 9.46203125 5.08203125 7.08203125 5.08203125 C7.08203125 5.74203125 7.08203125 6.40203125 7.08203125 7.08203125 C5.96828125 7.53578125 4.85453125 7.98953125 3.70703125 8.45703125 C0.12004117 9.80669111 0.12004117 9.80669111 -1.91796875 12.08203125 C-3.23796875 12.08203125 -4.55796875 12.08203125 -5.91796875 12.08203125 C-5.91796875 12.74203125 -5.91796875 13.40203125 -5.91796875 14.08203125 C-6.90796875 14.41203125 -7.89796875 14.74203125 -8.91796875 15.08203125 C-8.60546875 13.20703125 -8.60546875 13.20703125 -7.91796875 11.08203125 C-6.92796875 10.42203125 -5.93796875 9.76203125 -4.91796875 9.08203125 C-4.54396089 6.75487125 -4.21032142 4.42085263 -3.91796875 2.08203125 C-1.91796875 0.08203125 -1.91796875 0.08203125 0 0 Z " fill="#F6F6F7" transform="translate(22.91796875,6.91796875)"/>
<path d="M0 0 C0.99 0 1.98 0 3 0 C4.82421875 2.625 4.82421875 2.625 6.6875 6 C7.31011719 7.11375 7.93273437 8.2275 8.57421875 9.375 C9.04472656 10.24125 9.51523438 11.1075 10 12 C7.47982574 14.52017426 6.48500151 14.29730377 3 14.3125 C2.113125 14.32925781 1.22625 14.34601562 0.3125 14.36328125 C-0.8321875 14.18345703 -0.8321875 14.18345703 -2 14 C-4 11 -4 11 -3.828125 8.80859375 C-3.63734375 8.02613281 -3.4465625 7.24367188 -3.25 6.4375 C-3.06953125 5.65246094 -2.8890625 4.86742187 -2.703125 4.05859375 C-2 2 -2 2 0 0 Z " fill="#A18DC9" transform="translate(118,46)"/>
<path d="M0 0 C0.99 0 1.98 0 3 0 C4.60546875 2.1875 4.60546875 2.1875 6.1875 5 C6.71730469 5.928125 7.24710938 6.85625 7.79296875 7.8125 C8.19128906 8.534375 8.58960938 9.25625 9 10 C9.33 6.7 9.66 3.4 10 0 C10.99 0.33 11.98 0.66 13 1 C13 6.28 13 11.56 13 17 C12.01 17 11.02 17 10 17 C8.17578125 14.59375 8.17578125 14.59375 6.3125 11.5 C5.68988281 10.4790625 5.06726563 9.458125 4.42578125 8.40625 C3.95527344 7.6121875 3.48476562 6.818125 3 6 C2.67 9.63 2.34 13.26 2 17 C1.34 17 0.68 17 0 17 C0 11.39 0 5.78 0 0 Z " fill="#BEACE1" transform="translate(189,51)"/>
<path d="M0 0 C1.32 0.66 2.64 1.32 4 2 C3.01 2.66 2.02 3.32 1 4 C2.134375 4.12375 3.26875 4.2475 4.4375 4.375 C5.613125 4.58125 6.78875 4.7875 8 5 C8.33 5.66 8.66 6.32 9 7 C7.68 6.67 6.36 6.34 5 6 C5 6.66 5 7.32 5 8 C5.66 8 6.32 8 7 8 C12 13.5952381 12 13.5952381 12 15 C7.72691081 15.34522265 5.42687217 14.43486303 1.8125 12.1875 C0.95269531 11.66542969 0.09289062 11.14335937 -0.79296875 10.60546875 C-3 9 -3 9 -5 6 C-4.67 5.34 -4.34 4.68 -4 4 C-2.68 4 -1.36 4 0 4 C0 2.68 0 1.36 0 0 Z " fill="#B4AAC7" transform="translate(120,17)"/>
<path d="M0 0 C2.69513405 0.19817162 3.77144982 0.39822956 6 2 C7.74218777 6.46435617 7.83523945 11.26660024 6.19140625 15.78515625 C5 17.5625 5 17.5625 1.625 18.5 C-2 18.5625 -2 18.5625 -4.375 17.3125 C-6.775406 14.72744738 -6.99214482 12.66854497 -7.25 9.1875 C-6.86934238 3.66796453 -5.8939777 0.32503554 0 0 Z M-4 3.5625 C-4.8235953 7.13141297 -5.15637164 9.84319045 -4.375 13.4375 C-3.15418334 15.82227266 -3.15418334 15.82227266 -0.375 16.375 C0.40875 16.436875 1.1925 16.49875 2 16.5625 C4.49688253 13.9615807 4.99079384 12.66745017 5.3125 9 C5.26470228 5.44270391 5.26470228 5.44270391 3 2.5625 C0.19438238 2.28193824 -1.46578263 2.29539132 -4 3.5625 Z " fill="#B7A5DA" transform="translate(237,50.4375)"/>
<path d="M0 0 C1.69140625 1.18359375 1.69140625 1.18359375 3 3 C3.81791688 7.82644643 3.87793368 12.45483672 1.4375 16.75 C-2.07178131 18.54963144 -4.26411481 18.03774589 -8 17 C-10.22264871 13.66602694 -10.29675463 12.40485109 -10.3125 8.5 C-10.32925781 7.5409375 -10.34601563 6.581875 -10.36328125 5.59375 C-10 3 -10 3 -8.69921875 1.1796875 C-5.85455241 -0.79523028 -3.33709156 -0.35754552 0 0 Z M-4 1 C-6.17728073 1.87644433 -6.17728073 1.87644433 -8 4 C-8.54040159 7.05469107 -8.61207008 9.95619202 -8 13 C-6.73369654 14.83996814 -6.73369654 14.83996814 -5 16 C-2.3727086 15.92466753 -2.3727086 15.92466753 0 15 C1.72106221 11.55787557 1.64631493 7.75412714 1 4 C-1.33749166 1.84397306 -1.33749166 1.84397306 -4 1 Z " fill="#B8A6DC" transform="translate(183,51)"/>
<path d="M0 0 C6.8359375 -0.29296875 6.8359375 -0.29296875 9 0 C11 3 11 3 10.625 6 C10.41875 6.99 10.2125 7.98 10 9 C10 12.20395416 10.74335022 14.09399739 12 17 C11.01 17 10.02 17 9 17 C8.5875 16.030625 8.175 15.06125 7.75 14.0625 C6.35100832 10.87739901 6.35100832 10.87739901 3.8125 10.125 C3.214375 10.08375 2.61625 10.0425 2 10 C2 12.31 2 14.62 2 17 C1.34 17 0.68 17 0 17 C0 11.39 0 5.78 0 0 Z M3 2 C1.70366379 3.06645115 1.70366379 3.06645115 1.9375 5.5625 C1.958125 6.366875 1.97875 7.17125 2 8 C4.41645782 8.16687448 4.41645782 8.16687448 7 8 C7.66 7.34 8.32 6.68 9 6 C9 5.01 9 4.02 9 3 C7.0085944 2.61866701 5.00720923 2.28674418 3 2 Z " fill="#BEB5D0" transform="translate(217,51)"/>
<path d="M0 0 C0.66 0 1.32 0 2 0 C2.6875 1.8125 2.6875 1.8125 3 4 C0.4883674 7.46068461 -3.53771266 8.89351348 -7.3125 10.625 C-7.96412109 10.93695313 -8.61574219 11.24890625 -9.28710938 11.5703125 C-13.15938603 13.3688474 -16.68579964 14.6740382 -21 15 C-22.875 13.5625 -22.875 13.5625 -24 12 C-23.01 12 -22.02 12 -21 12 C-21 11.34 -21 10.68 -21 10 C-19.68 9.67 -18.36 9.34 -17 9 C-16.67 9.66 -16.34 10.32 -16 11 C-11.10437307 9.12297673 -11.10437307 9.12297673 -7 6 C-5.00334402 4.32932867 -3.00348966 2.66247014 -1 1 C-0.67 0.67 -0.34 0.34 0 0 Z " fill="#996DF0" transform="translate(113,48)"/>
<path d="M0 0 C0.99 0.474375 1.98 0.94875 3 1.4375 C6.99189495 3.16813748 10.68114582 3.62115314 15 4 C14.67 4.66 14.34 5.32 14 6 C7.73 5.67 1.46 5.34 -5 5 C-5.33 5.99 -5.66 6.98 -6 8 C-6.66 8 -7.32 8 -8 8 C-8 10.64 -8 13.28 -8 16 C-6.948125 16.12375 -5.89625 16.2475 -4.8125 16.375 C-1.54041229 16.91140782 1.00536076 17.63880035 4 19 C4 19.33 4 19.66 4 20 C-1.53771745 20.28643366 -5.24803827 20.24524216 -10 17 C-10.875 14.8125 -10.875 14.8125 -11 13 C-10.34 13 -9.68 13 -9 13 C-9.0825 12.0925 -9.165 11.185 -9.25 10.25 C-9 7 -9 7 -7.3125 4.625 C-4.61209763 2.72741996 -3.22939919 2.64117787 0 3 C0 2.01 0 1.02 0 0 Z " fill="#A48CD4" transform="translate(50,14)"/>
<path d="M0 0 C3.3 0.66 6.6 1.32 10 2 C10 2.99 10 3.98 10 5 C10.66 5 11.32 5 12 5 C12 5.99 12 6.98 12 8 C7.46298506 9.45184478 3.81938524 10.23509196 -1 10 C-0.34 8.68 0.32 7.36 1 6 C3.31 6 5.62 6 8 6 C6.87568002 4.64209699 6.87568002 4.64209699 3.9453125 4.97265625 C1.40358028 5.03243114 -1.13808959 5.09492016 -3.6796875 5.16015625 C-7 5 -7 5 -10 3 C-9.34 2.67 -8.68 2.34 -8 2 C-7.34 2.33 -6.68 2.66 -6 3 C-4.00039988 3.039992 -1.99952758 3.04346799 0 3 C0 2.01 0 1.02 0 0 Z " fill="#A793CD" transform="translate(85,27)"/>
<path d="M0 0 C0.66 0.99 1.32 1.98 2 3 C1.54625 3.433125 1.0925 3.86625 0.625 4.3125 C-1.20024334 6.10798342 -1.20024334 6.10798342 -3 9 C-3.66 9 -4.32 9 -5 9 C-5.12375 9.5775 -5.2475 10.155 -5.375 10.75 C-6.00648824 13.02335767 -6.88858191 14.9253529 -8 17 C-8.66 17 -9.32 17 -10 17 C-10.66 15.35 -11.32 13.7 -12 12 C-13.32 12 -14.64 12 -16 12 C-15.67 11.01 -15.34 10.02 -15 9 C-14.01 8.67 -13.02 8.34 -12 8 C-12 8.66 -12 9.32 -12 10 C-9.29130134 9.32282534 -7.47906973 8.71022925 -5.8828125 6.34375 C-5.55023438 5.7146875 -5.21765625 5.085625 -4.875 4.4375 C-3 1 -3 1 0 0 Z " fill="#AB93DB" transform="translate(42,14)"/>
<path d="M0 0 C1.46849261 0.29901433 2.93338512 0.616154 4.39453125 0.94921875 C5.14412109 1.10583984 5.89371094 1.26246094 6.66601562 1.42382812 C8.51632029 1.81274567 10.36217197 2.22273997 12.20703125 2.63671875 C12.20703125 3.62671875 12.20703125 4.61671875 12.20703125 5.63671875 C9.0194076 7.76180119 6.94190902 8.13873505 3.20703125 8.63671875 C4.52703125 9.29671875 5.84703125 9.95671875 7.20703125 10.63671875 C7.20703125 11.29671875 7.20703125 11.95671875 7.20703125 12.63671875 C3.417356 12.09533657 1.69290286 10.47771487 -0.79296875 7.63671875 C-0.79296875 7.30671875 -0.79296875 6.97671875 -0.79296875 6.63671875 C1.2578125 6.40885417 3.30859375 6.18098958 5.359375 5.953125 C7.21843354 5.81785261 7.21843354 5.81785261 8.20703125 4.63671875 C7.54316406 4.57613281 6.87929687 4.51554687 6.1953125 4.453125 C-2.57504256 3.62090153 -2.57504256 3.62090153 -6.79296875 2.63671875 C-4.78229324 -0.58195153 -3.85057955 -0.36879907 0 0 Z " fill="#A285DA" transform="translate(76.79296875,14.36328125)"/>
<path d="M0 0 C3.41615452 0.85547399 6.82642569 1.20045382 10.32421875 1.58203125 C8.32421875 4.58203125 8.32421875 4.58203125 6.23046875 5.1640625 C5.43640625 5.24011719 4.64234375 5.31617188 3.82421875 5.39453125 C3.03015625 5.48347656 2.23609375 5.57242187 1.41796875 5.6640625 C-0.67578125 5.58203125 -0.67578125 5.58203125 -2.67578125 3.58203125 C-2.34578125 2.92203125 -2.01578125 2.26203125 -1.67578125 1.58203125 C-3.12210938 2.06736328 -3.12210938 2.06736328 -4.59765625 2.5625 C-5.87337908 2.96585354 -7.14943905 3.36814189 -8.42578125 3.76953125 C-10.30523437 4.37861328 -10.30523437 4.37861328 -12.22265625 5 C-15.67578125 5.58203125 -15.67578125 5.58203125 -18.12890625 4.1953125 C-18.639375 3.66292969 -19.14984375 3.13054688 -19.67578125 2.58203125 C-17.03578125 2.58203125 -14.39578125 2.58203125 -11.67578125 2.58203125 C-12.00578125 1.92203125 -12.33578125 1.26203125 -12.67578125 0.58203125 C-7.8586386 -1.64126536 -4.91982166 -1.29468991 0 0 Z " fill="#D7D2E1" transform="translate(75.67578125,16.41796875)"/>
<path d="M0 0 C0.33 0.66 0.66 1.32 1 2 C1.763125 2.144375 2.52625 2.28875 3.3125 2.4375 C6.2873281 3.06013844 7.78505483 3.94912484 10 6 C10 6.66 10 7.32 10 8 C10.66 8.33 11.32 8.66 12 9 C5.69632197 8.41632611 0.01339937 6.95928381 -6 5 C-5.67 3.68 -5.34 2.36 -5 1 C-3.35 0.67 -1.7 0.34 0 0 Z " fill="#A48BD5" transform="translate(25,32)"/>
<path d="M0 0 C-0.33 0.99 -0.66 1.98 -1 3 C-1.598125 2.79375 -2.19625 2.5875 -2.8125 2.375 C-5.28450846 1.69328085 -5.28450846 1.69328085 -8 4 C-8.36460453 6.66653905 -8.36460453 6.66653905 -8.1875 9.625 C-8.16042969 10.62789062 -8.13335937 11.63078125 -8.10546875 12.6640625 C-8.07066406 13.43492188 -8.03585938 14.20578125 -8 15 C-5.36 15 -2.72 15 0 15 C0 15.66 0 16.32 0 17 C-5.37154989 18.22080679 -5.37154989 18.22080679 -8.3125 17.1875 C-10 16 -10 16 -11 14 C-11.14716542 12.19156337 -11.2210887 10.37668434 -11.25 8.5625 C-11.27578125 7.59441406 -11.3015625 6.62632813 -11.328125 5.62890625 C-11 3 -11 3 -9.74609375 1.1640625 C-6.64164903 -0.90556732 -3.63714626 -0.17887605 0 0 Z " fill="#B7A7D8" transform="translate(170,51)"/>
<path d="M0 0 C3.96 0 7.92 0 12 0 C12 0.66 12 1.32 12 2 C10.68 2 9.36 2 8 2 C8 6.95 8 11.9 8 17 C7.01 17 6.02 17 5 17 C5 12.05 5 7.1 5 2 C3.35 1.67 1.7 1.34 0 1 C0 0.67 0 0.34 0 0 Z " fill="#C3B7DB" transform="translate(203,51)"/>
<path d="M0 0 C2.125 0.375 2.125 0.375 4 1 C4 3.31 4 5.62 4 8 C3.67 7.34 3.34 6.68 3 6 C2.01 5.67 1.02 5.34 0 5 C-2.75383923 6.37691962 -3.51483101 8.36720042 -5 11 C-6.32 10.34 -7.64 9.68 -9 9 C-7.75 6.0625 -7.75 6.0625 -6 3 C-3.9375 2.25 -3.9375 2.25 -2 2 C-1.34 1.34 -0.68 0.68 0 0 Z " fill="#DBD6E3" transform="translate(29,18)"/>
<path d="M0 0 C4.27713145 0.37192447 7.72716604 1.19873587 11.6875 2.875 C17.30757462 5.24772796 23.06248845 6.6533479 29 8 C29 8.99 29 9.98 29 11 C27.68 11 26.36 11 25 11 C24.67 10.34 24.34 9.68 24 9 C21.91748524 8.45585461 21.91748524 8.45585461 19.4375 8.125 C15.08221381 7.34216682 11.6947022 6.05930933 7.828125 3.953125 C5.31766154 2.64425089 2.70565627 1.81169688 0 1 C0 0.67 0 0.34 0 0 Z " fill="#B6A8D2" transform="translate(20,4)"/>
<path d="M0 0 C0.66 0.33 1.32 0.66 2 1 C2 1.66 2 2.32 2 3 C2.33 3.66 2.66 4.32 3 5 C2.34 5.66 1.68 6.32 1 7 C1 6.34 1 5.68 1 5 C0.48050781 5.22816406 -0.03898438 5.45632812 -0.57421875 5.69140625 C-7.78098944 8.66203446 -7.78098944 8.66203446 -12 7 C-12.33 6.34 -12.66 5.68 -13 5 C-12.31292969 4.80664062 -11.62585938 4.61328125 -10.91796875 4.4140625 C-10.01691406 4.15367188 -9.11585938 3.89328125 -8.1875 3.625 C-7.29417969 3.36976562 -6.40085938 3.11453125 -5.48046875 2.8515625 C-2.79532104 2.04733339 -2.79532104 2.04733339 0 0 Z " fill="#C5C0CE" transform="translate(158,19)"/>
<path d="M0 0 C1.37478516 0.01740234 1.37478516 0.01740234 2.77734375 0.03515625 C3.69644531 0.04417969 4.61554688 0.05320312 5.5625 0.0625 C6.27277344 0.07410156 6.98304688 0.08570312 7.71484375 0.09765625 C7.71484375 1.08765625 7.71484375 2.07765625 7.71484375 3.09765625 C5.07484375 2.76765625 2.43484375 2.43765625 -0.28515625 2.09765625 C-0.28515625 4.40765625 -0.28515625 6.71765625 -0.28515625 9.09765625 C2.02484375 9.09765625 4.33484375 9.09765625 6.71484375 9.09765625 C6.71484375 9.42765625 6.71484375 9.75765625 6.71484375 10.09765625 C3.74484375 10.09765625 0.77484375 10.09765625 -2.28515625 10.09765625 C-3.77622082 7.11552712 -3.40457092 4.38155967 -3.28515625 1.09765625 C-2.28515625 0.09765625 -2.28515625 0.09765625 0 0 Z " fill="#A17DE7" transform="translate(199.28515625,26.90234375)"/>
<path d="M0 0 C0.33 0.66 0.66 1.32 1 2 C-0.11375 2.103125 -1.2275 2.20625 -2.375 2.3125 C-3.57125 2.539375 -4.7675 2.76625 -6 3 C-6.99 4.485 -6.99 4.485 -8 6 C-8.66 6 -9.32 6 -10 6 C-10.33 6.66 -10.66 7.32 -11 8 C-13.97 7.01 -16.94 6.02 -20 5 C-17.0017825 4.25044562 -14.03063487 3.58929011 -11 3 C-11 2.34 -11 1.68 -11 1 C-5.555 0.505 -5.555 0.505 0 0 Z " fill="#9369E4" transform="translate(92,31)"/>
<path d="M0 0 C5.32697239 1.45281065 8.36402802 5.08111378 12 9 C10.68 9.99 9.36 10.98 8 12 C7.484375 11.05125 6.96875 10.1025 6.4375 9.125 C3.52067674 5.385483 1.56756196 4.8783773 -3 4 C-2.67 3.34 -2.34 2.68 -2 2 C-1.34 2.33 -0.68 2.66 0 3 C0 2.01 0 1.02 0 0 Z " fill="#C8C3D2" transform="translate(124,17)"/>
<path d="M0 0 C0.99 0.33 1.98 0.66 3 1 C3 6.28 3 11.56 3 17 C2.34 17 1.68 17 1 17 C-1.64812363 11.2364368 -0.8019749 6.09067424 0 0 Z " fill="#CFBCF5" transform="translate(199,51)"/>
<path d="M0 0 C1.41702513 0.14230808 2.8336096 0.28900746 4.25 0.4375 C5.43335937 0.55931641 5.43335937 0.55931641 6.640625 0.68359375 C9.66237132 1.08882794 12.26804056 1.63402028 15 3 C14 4 14 4 11.125 4.0625 C9.578125 4.0315625 9.578125 4.0315625 8 4 C7.01 4 6.02 4 5 4 C5.99 4.99 6.98 5.98 8 7 C5.69 6.67 3.38 6.34 1 6 C0.67 4.02 0.34 2.04 0 0 Z " fill="#C3B9D8" transform="translate(71,27)"/>
<path d="M0 0 C0.66 0 1.32 0 2 0 C2.33 4.95 2.66 9.9 3 15 C5.97 15.495 5.97 15.495 9 16 C9 16.33 9 16.66 9 17 C6.03 17 3.06 17 0 17 C0 11.39 0 5.78 0 0 Z " fill="#AA98CE" transform="translate(247,51)"/>
<path d="M0 0 C0.33 0 0.66 0 1 0 C1 2.64 1 5.28 1 8 C2.98 8 4.96 8 7 8 C8.32 10.64 9.64 13.28 11 16 C10.01 16 9.02 16 8 16 C7.5875 15.030625 7.175 14.06125 6.75 13.0625 C5.35100832 9.87739901 5.35100832 9.87739901 2.8125 9.125 C2.214375 9.08375 1.61625 9.0425 1 9 C1 11.31 1 13.62 1 16 C0.67 16 0.34 16 0 16 C0 10.72 0 5.44 0 0 Z " fill="#AF9CD5" transform="translate(218,52)"/>
<path d="M0 0 C0.99 0 1.98 0 3 0 C4.4606285 2.64738916 5 3.89448334 5 7 C5.99 7.33 6.98 7.66 8 8 C8 8.99 8 9.98 8 11 C6.68 10.67 5.36 10.34 4 10 C4 9.34 4 8.68 4 8 C3.01 7.67 2.02 7.34 1 7 C0.67 4.69 0.34 2.38 0 0 Z " fill="#BDB8C7" transform="translate(123,43)"/>
<path d="M0 0 C2.475 0.99 2.475 0.99 5 2 C5.33 1.34 5.66 0.68 6 0 C6.55827609 1.26362492 7.09612097 2.5362919 7.625 3.8125 C7.92664063 4.52019531 8.22828125 5.22789063 8.5390625 5.95703125 C8.69117188 6.63121094 8.84328125 7.30539063 9 8 C8.01 9.485 8.01 9.485 7 11 C6.67 9.68 6.34 8.36 6 7 C5.01 7 4.02 7 3 7 C3 6.34 3 5.68 3 5 C2.01 5 1.02 5 0 5 C-0.5625 3.0625 -0.5625 3.0625 -1 1 C-0.67 0.67 -0.34 0.34 0 0 Z " fill="#BEB9C9" transform="translate(129,41)"/>
<path d="M0 0 C-0.99 0.495 -0.99 0.495 -2 1 C-1.34 2.65 -0.68 4.3 0 6 C-3.30435084 7.12377697 -5.0506862 6.89554742 -8.25 5.5625 C-8.95640625 5.27503906 -9.6628125 4.98757812 -10.390625 4.69140625 C-10.92171875 4.46324219 -11.4528125 4.23507813 -12 4 C-11.34 3.34 -10.68 2.68 -10 2 C-9.34 2 -8.68 2 -8 2 C-4.77208445 -0.1519437 -3.71599191 -0.20086443 0 0 Z " fill="#DAD4E4" transform="translate(73,26)"/>
<path d="M0 0 C0.66 0.66 1.32 1.32 2 2 C-5.83195492 8.97914205 -5.83195492 8.97914205 -10.5 9.0625 C-13 8 -13 8 -14 6 C-13.38511719 5.86722656 -12.77023438 5.73445313 -12.13671875 5.59765625 C-11.32847656 5.42105469 -10.52023438 5.24445312 -9.6875 5.0625 C-8.88699219 4.88847656 -8.08648437 4.71445312 -7.26171875 4.53515625 C-4.854599 4.00113841 -4.854599 4.00113841 -2 3 C-2 2.34 -2 1.68 -2 1 C-1.34 0.67 -0.68 0.34 0 0 Z " fill="#E0DAED" transform="translate(93,16)"/>
<path d="M0 0 C0.66 0.33 1.32 0.66 2 1 C0.68 3.31 -0.64 5.62 -2 8 C-3.65 8 -5.3 8 -7 8 C-7.33 7.01 -7.66 6.02 -8 5 C-6.02805885 3.02805885 -4.49095467 2.167635 -2 1 C-1.34 0.67 -0.68 0.34 0 0 Z " fill="#9974E2" transform="translate(22,20)"/>
<path d="M0 0 C1.23556641 0.01740234 1.23556641 0.01740234 2.49609375 0.03515625 C3.32238281 0.04417969 4.14867187 0.05320312 5 0.0625 C5.63808594 0.07410156 6.27617187 0.08570313 6.93359375 0.09765625 C6.93359375 0.42765625 6.93359375 0.75765625 6.93359375 1.09765625 C4.62359375 1.09765625 2.31359375 1.09765625 -0.06640625 1.09765625 C-0.06640625 3.40765625 -0.06640625 5.71765625 -0.06640625 8.09765625 C2.24359375 8.09765625 4.55359375 8.09765625 6.93359375 8.09765625 C6.93359375 8.42765625 6.93359375 8.75765625 6.93359375 9.09765625 C5.45452483 9.12454841 3.97531892 9.14400246 2.49609375 9.16015625 C1.26052734 9.17755859 1.26052734 9.17755859 0 9.1953125 C-2.06640625 9.09765625 -2.06640625 9.09765625 -3.06640625 8.09765625 C-3.19140625 4.59765625 -3.19140625 4.59765625 -3.06640625 1.09765625 C-2.06640625 0.09765625 -2.06640625 0.09765625 0 0 Z " fill="#A687E3" transform="translate(199.06640625,12.90234375)"/>
<path d="M0 0 C0.33 0.66 0.66 1.32 1 2 C1.66 1.67 2.32 1.34 3 1 C4.99960012 0.960008 7.00047242 0.95653201 9 1 C9.33 1.66 9.66 2.32 10 3 C12.01669827 4.13350534 12.01669827 4.13350534 14 5 C12.22950311 5.05410687 10.45853151 5.09284119 8.6875 5.125 C7.20830078 5.15980469 7.20830078 5.15980469 5.69921875 5.1953125 C3 5 3 5 0 3 C0 2.01 0 1.02 0 0 Z " fill="#9F84D4" transform="translate(4,31)"/>
<path d="M0 0 C0.33 0.66 0.66 1.32 1 2 C1.99 1.67 2.98 1.34 4 1 C4 1.99 4 2.98 4 4 C0.26317891 5.81502739 -2.00820257 6.33059914 -6 5 C-6.33 4.34 -6.66 3.68 -7 3 C-6.01 3 -5.02 3 -4 3 C-4 2.34 -4 1.68 -4 1 C-2 0 -2 0 0 0 Z " fill="#9162ED" transform="translate(96,57)"/>
<path d="M0 0 C-2 1.33333333 -4 2.66666667 -6 4 C-6.50584474 6.16463326 -6.50584474 6.16463326 -6.5625 8.5625 C-6.69140625 11.00390625 -6.69140625 11.00390625 -7 13 C-7.99 13.495 -7.99 13.495 -9 14 C-9.08114106 12.22992286 -9.13925505 10.45877902 -9.1875 8.6875 C-9.22230469 7.70136719 -9.25710937 6.71523438 -9.29296875 5.69921875 C-9 3 -9 3 -7.6875 1.15625 C-5.1703167 -0.5684867 -2.96507269 -0.19767151 0 0 Z " fill="#B7A8D4" transform="translate(182,51)"/>
<path d="M0 0 C3.3 0.33 6.6 0.66 10 1 C8 4 8 4 5.90625 4.58203125 C4.71515625 4.69611328 4.71515625 4.69611328 3.5 4.8125 C2.7059375 4.90144531 1.911875 4.99039062 1.09375 5.08203125 C-1 5 -1 5 -3 3 C-2.01 2.67 -1.02 2.34 0 2 C0 1.34 0 0.68 0 0 Z " fill="#CEC7DC" transform="translate(76,17)"/>
<path d="M0 0 C1.32 0.33 2.64 0.66 4 1 C4 1.66 4 2.32 4 3 C4.99 3 5.98 3 7 3 C7 3.66 7 4.32 7 5 C4.72942623 5.05398987 2.45848712 5.09278742 0.1875 5.125 C-1.70935547 5.15980469 -1.70935547 5.15980469 -3.64453125 5.1953125 C-7 5 -7 5 -10 3 C-9.34 2.67 -8.68 2.34 -8 2 C-7.34 2.33 -6.68 2.66 -6 3 C-4.00039988 3.039992 -1.99952758 3.04346799 0 3 C0 2.01 0 1.02 0 0 Z " fill="#9B7DD7" transform="translate(85,27)"/>
<path d="M0 0 C0.66 0.66 1.32 1.32 2 2 C0.9375 4.4375 0.9375 4.4375 -1 7 C-4.6875 7.8125 -4.6875 7.8125 -8 8 C-8.33 7.01 -8.66 6.02 -9 5 C-8.2575 4.731875 -7.515 4.46375 -6.75 4.1875 C-4.13363446 3.05770579 -2.19812889 1.79106798 0 0 Z " fill="#D7D0E4" transform="translate(26,14)"/>
<path d="M0 0 C-0.33 0.99 -0.66 1.98 -1 3 C-1.598125 2.79375 -2.19625 2.5875 -2.8125 2.375 C-5.28450846 1.69328085 -5.28450846 1.69328085 -8 4 C-8.73606499 7.56769552 -8.73606499 7.56769552 -9 11 C-9.33 11 -9.66 11 -10 11 C-11.31965272 3.68192581 -11.31965272 3.68192581 -10.0625 1 C-6.73364134 -0.61399208 -3.66695493 -0.18034205 0 0 Z " fill="#BFB3D6" transform="translate(170,51)"/>
<path d="M0 0 C1.17175781 0.22042969 2.34351562 0.44085938 3.55078125 0.66796875 C5.32001953 0.98701172 5.32001953 0.98701172 7.125 1.3125 C8.48044922 1.58126953 8.48044922 1.58126953 9.86328125 1.85546875 C7.86328125 3.85546875 7.86328125 3.85546875 5.875 4.0859375 C1.75756199 4.0098168 -2.12224015 3.89146323 -6.13671875 2.85546875 C-4.19240295 0.06885007 -3.47559087 -0.16014553 0 0 Z " fill="#B5A5D4" transform="translate(76.13671875,14.14453125)"/>
<path d="M0 0 C2 1 2 1 3.125 4.0625 C3.41375 5.031875 3.7025 6.00125 4 7 C3.01 7 2.02 7 1 7 C2.32 7.66 3.64 8.32 5 9 C4.67 9.99 4.34 10.98 4 12 C1.69 10.02 -0.62 8.04 -3 6 C-2.34 5.34 -1.68 4.68 -1 4 C-0.3574765 1.93125966 -0.3574765 1.93125966 0 0 Z " fill="#9F83D6" transform="translate(105,7)"/>
<path d="M0 0 C0.99 0 1.98 0 3 0 C3.99 3.3 4.98 6.6 6 10 C4.68 9.67 3.36 9.34 2 9 C1.34 6.03 0.68 3.06 0 0 Z " fill="#B6AFC2" transform="translate(118,46)"/>
<path d="M0 0 C2.31 0.33 4.62 0.66 7 1 C7 1.33 7 1.66 7 2 C5.02 2.66 3.04 3.32 1 4 C0.67 5.98 0.34 7.96 0 10 C-1.32 9.67 -2.64 9.34 -4 9 C-2.68 6.03 -1.36 3.06 0 0 Z " fill="#D5D4D8" transform="translate(19,5)"/>
<path d="M0 0 C7.625 0.875 7.625 0.875 11 2 C11 2.99 11 3.98 11 5 C9.234375 5.6484375 9.234375 5.6484375 7 6 C5.078125 5.0390625 5.078125 5.0390625 3.25 3.625 C2.63640625 3.16351563 2.0228125 2.70203125 1.390625 2.2265625 C0.93171875 1.82179687 0.4728125 1.41703125 0 1 C0 0.67 0 0.34 0 0 Z " fill="#9E7EDC" transform="translate(77,50)"/>
<path d="M0 0 C1.6065676 0.25620684 3.2102483 0.53055871 4.8125 0.8125 C6.15248047 1.03873047 6.15248047 1.03873047 7.51953125 1.26953125 C10.18321256 2.05395393 11.25690322 2.88627799 13 5 C11.906875 4.835 10.81375 4.67 9.6875 4.5 C6.12474127 3.93281816 6.12474127 3.93281816 3 4 C0.8125 3 0.8125 3 -1 2 C-0.67 1.34 -0.34 0.68 0 0 Z " fill="#CFC7DD" transform="translate(59,32)"/>
<path d="M0 0 C0.99 1.32 1.98 2.64 3 4 C2.34 4 1.68 4 1 4 C1 4.66 1 5.32 1 6 C-0.98 6.66 -2.96 7.32 -5 8 C-5 5 -5 5 -2.5 2.3125 C-1.675 1.549375 -0.85 0.78625 0 0 Z " fill="#CEC6DC" transform="translate(102,4)"/>
<path d="M0 0 C4.13126473 1.92151848 7.53258866 4.04250209 11 7 C10.67 7.66 10.34 8.32 10 9 C9.4225 8.525625 8.845 8.05125 8.25 7.5625 C6.07417916 6.0515133 4.57397552 5.45963849 2 5 C2 4.34 2 3.68 2 3 C0.35 2.67 -1.3 2.34 -3 2 C-2.01 1.34 -1.02 0.68 0 0 Z " fill="#C5C1CD" transform="translate(108,4)"/>
<path d="M0 0 C-0.38597015 2.79828356 -0.80136573 3.8205884 -2.9375 5.75 C-5 7 -5 7 -7 7 C-6.67 6.01 -6.34 5.02 -6 4 C-6.66 3.34 -7.32 2.68 -8 2 C-5.09399739 0.74335022 -3.20395416 0 0 0 Z " fill="#9E7BE3" transform="translate(159,24)"/>
<path d="M0 0 C0.66 0.33 1.32 0.66 2 1 C2 3.64 2 6.28 2 9 C1.34 9 0.68 9 0 9 C-0.33 9.66 -0.66 10.32 -1 11 C-2.26264601 6.70700357 -1.62950412 4.12168689 0 0 Z " fill="#B7B2C0" transform="translate(116,48)"/>
<path d="M0 0 C0.66 0 1.32 0 2 0 C1.52651586 4.1666604 0.95303159 6.92884715 -2 10 C-2.66 10 -3.32 10 -4 10 C-4 8.02 -4 6.04 -4 4 C-3.01 3.67 -2.02 3.34 -1 3 C-0.67 2.01 -0.34 1.02 0 0 Z " fill="#9267E8" transform="translate(37,23)"/>
<path d="M0 0 C0.99 0.99 1.98 1.98 3 3 C-0.63 3 -4.26 3 -8 3 C-8.33 2.34 -8.66 1.68 -9 1 C-5.92122743 0.08777109 -3.20806377 -0.32903218 0 0 Z " fill="#AA9EC0" transform="translate(146,25)"/>
<path d="M0 0 C2.9375 0.375 2.9375 0.375 6 1 C6.33 1.66 6.66 2.32 7 3 C5.68 2.67 4.36 2.34 3 2 C3 2.66 3 3.32 3 4 C3.66 4 4.32 4 5 4 C4.67 5.32 4.34 6.64 4 8 C2 6.25 2 6.25 0 4 C0 2.68 0 1.36 0 0 Z " fill="#AA99CA" transform="translate(122,21)"/>
<path d="M0 0 C0.33 0.66 0.66 1.32 1 2 C3.02463255 2.65213292 3.02463255 2.65213292 5 3 C5.33 2.34 5.66 1.68 6 1 C7.24546405 3.49092811 6.7767578 4.41080733 6 7 C4.68 7 3.36 7 2 7 C2 5.68 2 4.36 2 3 C1.34 3 0.68 3 0 3 C0 2.01 0 1.02 0 0 Z " fill="#A195B9" transform="translate(126,51)"/>
<path d="M0 0 C1.52408942 2.03211923 2.06871724 3.43917864 1.7578125 5.9765625 C0.4375 11.5625 0.4375 11.5625 -2 14 C-1.03644647 4.58997722 -1.03644647 4.58997722 0 0 Z " fill="#A383E4" transform="translate(215,12)"/>
<path d="M0 0 C0.99 0.495 0.99 0.495 2 1 C2.40729228 3.32156597 2.74438677 5.6568787 3 8 C3.66 8 4.32 8 5 8 C5.33 9.32 5.66 10.64 6 12 C3.5625 11.0625 3.5625 11.0625 1 9 C0.2475065 6.01122299 0.07090135 3.07454047 0 0 Z " fill="#9270D7" transform="translate(127,41)"/>
<path d="M0 0 C2.31 0.66 4.62 1.32 7 2 C4.39308158 4.60691842 2.62392206 4.70416963 -1 5 C-1.99 4.34 -2.98 3.68 -4 3 C-2.35 2.67 -0.7 2.34 1 2 C0.67 1.34 0.34 0.68 0 0 Z " fill="#A48DD1" transform="translate(76,31)"/>
<path d="M0 0 C0.99 0.66 1.98 1.32 3 2 C2.34 3.98 1.68 5.96 1 8 C-0.32 7.34 -1.64 6.68 -3 6 C-2.01 4.02 -1.02 2.04 0 0 Z " fill="#CDC3E0" transform="translate(23,21)"/>
<path d="M0 0 C0.99 0.33 1.98 0.66 3 1 C3.95024979 4.69541586 3.95024979 7.30458414 3 11 C2.67 11 2.34 11 2 11 C1.896875 9.906875 1.79375 8.81375 1.6875 7.6875 C1.02692273 4.14440371 0.7972908 3.06756277 -2 1 C-1.34 0.67 -0.68 0.34 0 0 Z " fill="#C9C1D9" transform="translate(182,51)"/>
<path d="M0 0 C2.31 0.66 4.62 1.32 7 2 C3.5647952 4.29013653 2.014669 4.17842973 -2 4 C-1.34 2.68 -0.68 1.36 0 0 Z " fill="#9C7ED6" transform="translate(86,33)"/>
<path d="M0 0 C0.99 0.33 1.98 0.66 3 1 C3 2.32 3 3.64 3 5 C3.66 5 4.32 5 5 5 C5 5.66 5 6.32 5 7 C5.66 7.33 6.32 7.66 7 8 C5.35 7.67 3.7 7.34 2 7 C1.34 4.69 0.68 2.38 0 0 Z " fill="#A287D8" transform="translate(54,30)"/>
<path d="M0 0 C0.99 0.66 1.98 1.32 3 2 C1 4 -1 6 -3 8 C-3 4 -3 4 -2 1 C-1.34 0.67 -0.68 0.34 0 0 Z " fill="#9874DE" transform="translate(137,27)"/>
<path d="M0 0 C3 1 6 2 9 3 C8.67 4.32 8.34 5.64 8 7 C5 6 5 6 3 3 C2.01 2.67 1.02 2.34 0 2 C0 1.34 0 0.68 0 0 Z " fill="#9063E9" transform="translate(92,24)"/>
<path d="M0 0 C0.66 0 1.32 0 2 0 C1.8125 1.8125 1.8125 1.8125 1 4 C-1.5625 5.75 -1.5625 5.75 -4 7 C-4.33 6.34 -4.66 5.68 -5 5 C-4.34 4.01 -3.68 3.02 -3 2 C-2.01 2 -1.02 2 0 2 C0 1.34 0 0.68 0 0 Z " fill="#D6CFE3" transform="translate(103,8)"/>
<path d="M0 0 C1.875 0.3125 1.875 0.3125 4 1 C4.66 1.99 5.32 2.98 6 4 C4.02 4.99 4.02 4.99 2 6 C1.34 4.02 0.68 2.04 0 0 Z " fill="#B7A9D1" transform="translate(130,23)"/>
<path d="M0 0 C0.33 0.99 0.66 1.98 1 3 C2.65 3 4.3 3 6 3 C3 5 3 5 0.375 4.75 C-0.40875 4.5025 -1.1925 4.255 -2 4 C-2.33 3.34 -2.66 2.68 -3 2 C-2.01 2 -1.02 2 0 2 C0 1.34 0 0.68 0 0 Z " fill="#A78BDE" transform="translate(92,58)"/>
<path d="M0 0 C3.125 0.375 3.125 0.375 6 1 C2.25 3 2.25 3 0 3 C-0.33 3.99 -0.66 4.98 -1 6 C-1.625 4.125 -1.625 4.125 -2 2 C-1.34 1.34 -0.68 0.68 0 0 Z " fill="#CDC4DD" transform="translate(233,51)"/>
<path d="M0 0 C1.98 0.99 1.98 0.99 4 2 C4 2.99 4 3.98 4 5 C4.66 5 5.32 5 6 5 C5.67 6.32 5.34 7.64 5 9 C3.35 6.03 1.7 3.06 0 0 Z " fill="#8E5FEC" transform="translate(122,49)"/>
<path d="M0 0 C-1.25 1.5625 -1.25 1.5625 -3 3 C-5.125 2.8125 -5.125 2.8125 -7 2 C-7.33 1.34 -7.66 0.68 -8 0 C-4.94736336 -0.98120464 -3.05263664 -0.98120464 0 0 Z " fill="#BAB5C3" transform="translate(153,24)"/>
<path d="M0 0 C0.66 0.66 1.32 1.32 2 2 C-2.75 6 -2.75 6 -5 6 C-4.67 5.01 -4.34 4.02 -4 3 C-3.34 3 -2.68 3 -2 3 C-2 2.34 -2 1.68 -2 1 C-1.34 0.67 -0.68 0.34 0 0 Z " fill="#F1F0F4" transform="translate(93,16)"/>
</svg>
