<?xml version="1.0" encoding="UTF-8"?>
<svg version="1.1" xmlns="http://www.w3.org/2000/svg" width="176" height="170">
<path d="M0 0 C5.26609651 0.33613382 9.4100244 1.90541621 14.23828125 3.9609375 C18.17867183 5.44346069 22.21420167 6.26722778 26.3359375 7.09375 C29.45338668 8.15423125 30.72200734 9.68050545 33 12 C38.40675754 13.79245766 43.40370369 13.03852991 48.75 11.4375 C53.76448412 9.95771023 57.14500199 10.18645875 62.25 11.25 C67.0220785 12.19585771 67.0220785 12.19585771 71.48828125 10.76171875 C73.53997902 8.95730659 75.27789439 7.11886524 77 5 C81.21726041 0.16557953 81.21726041 0.16557953 85.25 -0.6875 C94.97771694 1.09591477 102.45946859 9.7161126 109.64453125 16.07421875 C110.2382251 16.5849292 110.83191895 17.09563965 111.44360352 17.62182617 C113 19 113 19 114.890625 21.03125 C118.62105514 22.74448458 122.17944816 21.00481364 125.9375 19.8125 C126.73607422 19.57724609 127.53464844 19.34199219 128.35742188 19.09960938 C132.32049342 17.91429966 136.19081138 16.62371475 140 15 C140 15.99 140 16.98 140 18 C140.33 18.66 140.66 19.32 141 20 C137.44803086 25.47003248 132.37596411 28.11073659 126.875 31.3125 C125.49634766 32.13717773 125.49634766 32.13717773 124.08984375 32.97851562 C117.28579193 37 117.28579193 37 115 37 C115.23976562 37.53109375 115.47953125 38.0621875 115.7265625 38.609375 C118.17838765 44.45111492 118.17838765 44.45111492 117.1875 47.5 C116.795625 47.995 116.40375 48.49 116 49 C115.34 49 114.68 49 114 49 C113.79375 49.78375 113.5875 50.5675 113.375 51.375 C112 54 112 54 109.5 55.3125 C105.08096094 56.18052553 100.42785173 57.08981548 96 56 C94.19921875 53.47265625 94.19921875 53.47265625 93 51 C91.98679687 51.49371094 90.97359375 51.98742188 89.9296875 52.49609375 C88.57831522 53.1436263 87.22674198 53.79073956 85.875 54.4375 C85.20984375 54.76298828 84.5446875 55.08847656 83.859375 55.42382812 C79.96061548 57.27765006 76.38764847 58.94553264 72 59 C69.39453125 57.4453125 69.39453125 57.4453125 66.8125 55.125 C65.86503906 54.29871094 64.91757813 53.47242188 63.94140625 52.62109375 C62.97074219 51.75613281 62.00007813 50.89117187 61 50 C55.21951043 45.10404172 49.70438557 40.54193955 43 37 C42.40058594 36.57976563 41.80117187 36.15953125 41.18359375 35.7265625 C35.72917973 31.9139822 30.55872596 30.80778426 24 30 C23.401875 30.78375 22.80375 31.5675 22.1875 32.375 C20 35 20 35 17 37 C12.45257101 36.76066163 8.56662551 35.91107082 4.25 34.5 C-0.64215251 32.92996036 -5.31633275 32.52876274 -10.43359375 32.30859375 C-13 32 -13 32 -16 30 C-15.42365861 25.24518354 -13.44931479 22.02951788 -11 18 C-10.34 18 -9.68 18 -9 18 C-8.9175 17.113125 -8.835 16.22625 -8.75 15.3125 C-7.88906711 11.51004639 -6.49814717 9.93899667 -4 7 C-2.96958573 5.01549844 -1.96314063 3.01800895 -1 1 C-0.67 0.67 -0.34 0.34 0 0 Z " fill="#A791D2" transform="translate(26,12)"/>
<path d="M0 0 C3.77529167 1.77904432 6.73427599 4.16147775 9.875 6.875 C18.83906432 14.99122626 18.83906432 14.99122626 30 18 C29.649375 16.741875 29.29875 15.48375 28.9375 14.1875 C28.06390515 11.05283612 27.92760703 10.21717892 29 7 C29.39944824 7.45632812 29.79889648 7.91265625 30.21044922 8.3828125 C33.6098242 11.91954347 33.6098242 11.91954347 38.18457031 13.05859375 C40.58131318 12.53265622 42.81638681 11.83079447 45.125 11 C45.91003906 10.75121094 46.69507813 10.50242187 47.50390625 10.24609375 C51.40022198 8.99112528 55.22205907 7.57793517 59 6 C59 6.99 59 7.98 59 9 C59.495 9.99 59.495 9.99 60 11 C56.44803086 16.47003248 51.37596411 19.11073659 45.875 22.3125 C44.49634766 23.13717773 44.49634766 23.13717773 43.08984375 23.97851562 C36.28579193 28 36.28579193 28 34 28 C34.23976563 28.53109375 34.47953125 29.0621875 34.7265625 29.609375 C37.17838765 35.45111492 37.17838765 35.45111492 36.1875 38.5 C35.795625 38.995 35.40375 39.49 35 40 C34.34 40 33.68 40 33 40 C32.690625 41.175625 32.690625 41.175625 32.375 42.375 C31 45 31 45 28.5 46.3125 C24.08096094 47.18052553 19.42785173 48.08981548 15 47 C13.19921875 44.47265625 13.19921875 44.47265625 12 42 C10.98679688 42.49371094 9.97359375 42.98742188 8.9296875 43.49609375 C7.57831522 44.1436263 6.22674198 44.79073956 4.875 45.4375 C4.20984375 45.76298828 3.5446875 46.08847656 2.859375 46.42382812 C-1.03938452 48.27765006 -4.61235153 49.94553264 -9 50 C-11.60546875 48.4453125 -11.60546875 48.4453125 -14.1875 46.125 C-15.12980469 45.3 -16.07210937 44.475 -17.04296875 43.625 C-18.50669922 42.325625 -18.50669922 42.325625 -20 41 C-21.99319094 39.36665531 -23.99294461 37.74127772 -26 36.125 C-28.82715181 33.83204839 -31.42122617 31.57877383 -34 29 C-29.05 29 -24.1 29 -19 29 C-24.94 28.01 -24.94 28.01 -31 27 C-26.64705882 24.82352941 -26.64705882 24.82352941 -23 26 C-22.01 26 -21.02 26 -20 26 C-22.97 25.01 -25.94 24.02 -29 23 C-26.0017825 22.25044562 -23.03063487 21.58929011 -20 21 C-20 20.34 -20 19.68 -20 19 C-16.04 18.67 -12.08 18.34 -8 18 C-8 18.66 -8 19.32 -8 20 C-9.11375 20.103125 -10.2275 20.20625 -11.375 20.3125 C-12.57125 20.539375 -13.7675 20.76625 -15 21 C-15.66 21.99 -16.32 22.98 -17 24 C-16.39671875 23.855625 -15.7934375 23.71125 -15.171875 23.5625 C-14.37265625 23.376875 -13.5734375 23.19125 -12.75 23 C-11.96109375 22.814375 -11.1721875 22.62875 -10.359375 22.4375 C-8 22 -8 22 -4 22 C-4 21.01 -4 20.02 -4 19 C-4.66 19 -5.32 19 -6 19 C-6 18.01 -6 17.02 -6 16 C-7.258125 15.855625 -8.51625 15.71125 -9.8125 15.5625 C-12.42667123 15.26251314 -14.47439892 14.84186703 -17 14 C-17 13.34 -17 12.68 -17 12 C-15.43945313 10.67138672 -15.43945313 10.67138672 -13.28125 9.1796875 C-12.51425781 8.64472656 -11.74726562 8.10976563 -10.95703125 7.55859375 C-10.14621094 7.00300781 -9.33539063 6.44742187 -8.5 5.875 C-7.68917969 5.31167969 -6.87835938 4.74835937 -6.04296875 4.16796875 C-4.03270983 2.77261256 -2.01832507 1.38365151 0 0 Z " fill="#8B54F9" transform="translate(107,21)"/>
<path d="M0 0 C3.196875 -0.0825 6.39375 -0.165 9.6875 -0.25 C10.68612061 -0.28641602 11.68474121 -0.32283203 12.71362305 -0.36035156 C16.90111525 -0.41266885 19.3712156 -0.36665689 23.0546875 1.78125 C25.88491297 5.00929832 26.74542414 7.74164015 27 12 C26.59765625 14.15625 26.59765625 14.15625 26 16.25 C24.86930397 20.49011012 25.15822955 20.4586546 27 24 C27.1875 26.18359375 27.1875 26.18359375 27 28.4375 C26.95875 29.17871094 26.9175 29.91992188 26.875 30.68359375 C25.52319989 34.26224316 23.35279989 36.32569661 20 38 C16.50783085 38.58262872 13.1524369 38.47477014 9.625 38.3125 C6.44875 38.209375 3.2725 38.10625 0 38 C0 25.46 0 12.92 0 0 Z M9 8 C9 10.31 9 12.62 9 15 C12.41656024 15.16677282 12.41656024 15.16677282 16 15 C16.66 14.34 17.32 13.68 18 13 C17.59471099 10.21762345 17.59471099 10.21762345 16 8 C13.66702567 7.95907063 11.33294775 7.95758277 9 8 Z M9 23 C9 25.31 9 27.62 9 30 C12.41656024 30.16677282 12.41656024 30.16677282 16 30 C16.66 29.34 17.32 28.68 18 28 C17.83333333 25.91666667 17.83333333 25.91666667 17 24 C14.29120665 22.64560332 11.99066732 22.93498549 9 23 Z " fill="#8450EA" transform="translate(70,78)"/>
<path d="M0 0 C0.99 0.495 0.99 0.495 2 1 C2 1.66 2 2.32 2 3 C2.495 3.99 2.495 3.99 3 5 C-0.55196914 10.47003248 -5.62403589 13.11073659 -11.125 16.3125 C-12.50365234 17.13717773 -12.50365234 17.13717773 -13.91015625 17.97851562 C-20.71420807 22 -20.71420807 22 -23 22 C-22.76023438 22.53109375 -22.52046875 23.0621875 -22.2734375 23.609375 C-19.82161235 29.45111492 -19.82161235 29.45111492 -20.8125 32.5 C-21.204375 32.995 -21.59625 33.49 -22 34 C-22.66 34 -23.32 34 -24 34 C-24.20625 34.78375 -24.4125 35.5675 -24.625 36.375 C-26 39 -26 39 -28.5 40.3125 C-32.91903906 41.18052553 -37.57214827 42.08981548 -42 41 C-43.80078125 38.47265625 -43.80078125 38.47265625 -45 36 C-46.01320313 36.49371094 -47.02640625 36.98742188 -48.0703125 37.49609375 C-49.42168478 38.1436263 -50.77325802 38.79073956 -52.125 39.4375 C-52.79015625 39.76298828 -53.4553125 40.08847656 -54.140625 40.42382812 C-61.66164626 44 -61.66164626 44 -66 44 C-68.9921875 42.12890625 -68.9921875 42.12890625 -71.875 39.5625 C-72.84179688 38.71816406 -73.80859375 37.87382813 -74.8046875 37.00390625 C-75.52914062 36.34261719 -76.25359375 35.68132813 -77 35 C-73.2734375 33.8984375 -73.2734375 33.8984375 -70.8125 34.8125 C-69 36 -69 36 -68 38 C-67.01 38.33 -66.02 38.66 -65 39 C-65 39.66 -65 40.32 -65 41 C-64.34 41.33 -63.68 41.66 -63 42 C-62.67 41.34 -62.34 40.68 -62 40 C-60.22265625 39.21875 -60.22265625 39.21875 -58.0625 38.5 C-55.29544796 37.57597536 -54.10862631 37.10862631 -52 35 C-48.23295164 31.56780038 -46.12390408 29.7319863 -41 29 C-40.67 28.34 -40.34 27.68 -40 27 C-39.01 27 -38.02 27 -37 27 C-36.505 27.99 -36.505 27.99 -36 29 C-35.67 27.35 -35.34 25.7 -35 24 C-34.34 24 -33.68 24 -33 24 C-32.731875 23.38125 -32.46375 22.7625 -32.1875 22.125 C-31 20 -31 20 -28 18 C-28.66 16.35 -29.32 14.7 -30 13 C-29.01 12.67 -28.02 12.34 -27 12 C-27.350625 10.741875 -27.70125 9.48375 -28.0625 8.1875 C-28.93609485 5.05283612 -29.07239297 4.21717892 -28 1 C-27.60200195 1.45632812 -27.20400391 1.91265625 -26.79394531 2.3828125 C-23.3810356 5.93059768 -23.3810356 5.93059768 -18.78320312 7.05859375 C-16.35501832 6.53458446 -14.09016021 5.83248322 -11.75 5 C-10.94820313 4.75121094 -10.14640625 4.50242187 -9.3203125 4.24609375 C-5.80194925 3.12233559 -3.10107708 2.06738472 0 0 Z " fill="#8456E1" transform="translate(164,27)"/>
<path d="M0 0 C19.48648649 0 19.48648649 0 25 4 C29.41353172 8.41353172 30.81624684 12.72146079 31.3125 18.875 C31.13063779 24.1692111 29.99138572 28.82971911 26.34765625 32.80078125 C17.78932477 40.38205163 13.88040363 38 0 38 C0 25.46 0 12.92 0 0 Z M8 8 C7.97112186 11.47914941 7.95324313 14.95826831 7.9375 18.4375 C7.92912109 19.43072266 7.92074219 20.42394531 7.91210938 21.44726562 C7.90888672 22.39150391 7.90566406 23.33574219 7.90234375 24.30859375 C7.89710693 25.18314209 7.89187012 26.05769043 7.88647461 26.95874023 C7.77215191 28.99440206 7.77215191 28.99440206 9 30 C14.51979725 29.73082562 14.51979725 29.73082562 19.4375 27.5 C21.74262996 23.81179207 22.19307436 20.31714264 22 16 C20.35301213 11.79103099 18.11286243 9.81731131 14 8 C12.00054864 7.95315712 9.99931355 7.9476042 8 8 Z " fill="#8451E8" transform="translate(103,78)"/>
<path d="M0 0 C6.27 0 12.54 0 19 0 C19 2.64 19 5.28 19 8 C15.37 8 11.74 8 8 8 C8 10.31 8 12.62 8 15 C11.3 15 14.6 15 18 15 C18 17.64 18 20.28 18 23 C14.7 23 11.4 23 8 23 C8 25.31 8 27.62 8 30 C9.051875 29.814375 10.10375 29.62875 11.1875 29.4375 C14.57119882 29.04920669 16.76425888 29.11752515 20 30 C20 32.64 20 35.28 20 38 C13.4 38 6.8 38 0 38 C-0.68795047 32.49639628 -1.08879018 28.06659132 -0.87890625 22.65625 C-0.85529526 22.00168823 -0.83168427 21.34712646 -0.80735779 20.67272949 C-0.73176285 18.61487252 -0.64730285 16.5574959 -0.5625 14.5 C-0.50917445 13.09116809 -0.45643511 11.68231385 -0.40429688 10.2734375 C-0.27528418 6.84873677 -0.13842143 3.42433334 0 0 Z " fill="#8752F1" transform="translate(44,78)"/>
<path d="M0 0 C1.2077558 3.62326739 0.54311128 4.64146369 -1 8 C-0.37351562 7.84402344 0.25296875 7.68804688 0.8984375 7.52734375 C2.12433594 7.23537109 2.12433594 7.23537109 3.375 6.9375 C4.18710937 6.74027344 4.99921875 6.54304688 5.8359375 6.33984375 C8 6 8 6 10 7 C9.01 8.98 8.02 10.96 7 13 C10.79968558 13.2981424 10.79968558 13.2981424 13.125 11.9375 C13.74375 11.628125 14.3625 11.31875 15 11 C15.66 11.33 16.32 11.66 17 12 C17.33 12.99 17.66 13.98 18 15 C18.66 14.34 19.32 13.68 20 13 C20.66 12.67 21.32 12.34 22 12 C22.33 11.01 22.66 10.02 23 9 C24 8 25 7 26 6 C27.03357147 4.35394174 28.04060332 2.69036558 29 1 C31.31 1.33 33.62 1.66 36 2 C36 2.33 36 2.66 36 3 C33.69 3.33 31.38 3.66 29 4 C28.34 6.97 27.68 9.94 27 13 C26.34 13 25.68 13 25 13 C25 13.66 25 14.32 25 15 C30.00307047 17.50153523 35.26513209 18.49722703 40.73046875 19.4375 C43 20 43 20 46 22 C45.505 23.485 45.505 23.485 45 25 C44.45859375 24.52949219 43.9171875 24.05898438 43.359375 23.57421875 C40.60698528 21.73777329 38.50442793 21.31616146 35.25 20.8125 C34.26515625 20.65394531 33.2803125 20.49539062 32.265625 20.33203125 C31.14414063 20.16767578 31.14414063 20.16767578 30 20 C29.401875 20.78375 28.80375 21.5675 28.1875 22.375 C26 25 26 25 23 27 C18.45257101 26.76066163 14.56662551 25.91107082 10.25 24.5 C5.35784749 22.92996036 0.68366725 22.52876274 -4.43359375 22.30859375 C-7 22 -7 22 -10 20 C-9.42365861 15.24518354 -7.44931479 12.02951788 -5 8 C-4.34 8 -3.68 8 -3 8 C-2.814375 6.576875 -2.814375 6.576875 -2.625 5.125 C-2 2 -2 2 0 0 Z " fill="#8863D2" transform="translate(20,22)"/>
<path d="M0 0 C5.08060554 1.24786803 8.43722355 3.73874882 12.5625 6.875 C13.52414063 7.51695313 14.48578125 8.15890625 15.4765625 8.8203125 C21.24514106 12.94507448 24.13683762 15.9038062 25.75 22.9375 C26.06410526 24.91026184 26.35066386 26.88865239 26.5625 28.875 C16.63130321 29.52192655 8.33559291 20.47687063 1.25 14.36328125 C-1.4375 11.875 -1.4375 11.875 -3.4375 8.875 C-2.7775 8.545 -2.1175 8.215 -1.4375 7.875 C-1.1075 6.885 -0.7775 5.895 -0.4375 4.875 C-1.0975 4.875 -1.7575 4.875 -2.4375 4.875 C-2.4375 5.535 -2.4375 6.195 -2.4375 6.875 C-8.0625 8.875 -8.0625 8.875 -11.4375 8.875 C-4.8775 1.24154545 -4.8775 1.24154545 0 0 Z " fill="#B6ACC8" transform="translate(111.4375,11.125)"/>
<path d="M0 0 C0.99 0.99 1.98 1.98 3 3 C2.34 3.33 1.68 3.66 1 4 C2.485 4.99 2.485 4.99 4 6 C4 6.66 4 7.32 4 8 C6.93720508 9.52299523 9.9168649 10.80100302 13 12 C10.41569255 13.71056541 9.31678461 14.05220752 6.203125 13.5390625 C5.22859375 13.23742188 4.2540625 12.93578125 3.25 12.625 C2.26515625 12.32851563 1.2803125 12.03203125 0.265625 11.7265625 C-0.48203125 11.48679687 -1.2296875 11.24703125 -2 11 C-1.34 12.65 -0.68 14.3 0 16 C-3.30435084 17.12377697 -5.0506862 16.89554742 -8.25 15.5625 C-8.95640625 15.27503906 -9.6628125 14.98757812 -10.390625 14.69140625 C-10.92171875 14.46324219 -11.4528125 14.23507813 -12 14 C-12 13.34 -12 12.68 -12 12 C-12.71285156 12.02320313 -13.42570312 12.04640625 -14.16015625 12.0703125 C-19.88360394 12.17815674 -24.59838814 11.92057311 -30 10 C-29.125 5.25 -29.125 5.25 -28 3 C-26.72125 3.02320313 -25.4425 3.04640625 -24.125 3.0703125 C-22.41667255 3.08908533 -20.70833873 3.10728389 -19 3.125 C-18.16082031 3.14175781 -17.32164063 3.15851562 -16.45703125 3.17578125 C-10.94926939 3.21847708 -6.27475035 2.61838931 -1 1 C-0.67 0.67 -0.34 0.34 0 0 Z " fill="#F0EFF2" transform="translate(79,24)"/>
<path d="M0 0 C4.54753236 -0.25412681 7.43377026 0.3535697 11.5 2.375 C15.28500528 4.19779245 18.96172463 5.79943165 23 7 C22.67 7.66 22.34 8.32 22 9 C21.01 9.33 20.02 9.66 19 10 C17.77554716 11.62948064 17.77554716 11.62948064 16.8125 13.5625 C16.214375 14.696875 15.61625 15.83125 15 17 C14.34 17 13.68 17 13 17 C12.67 17.99 12.34 18.98 12 20 C12 19.34 12 18.68 12 18 C11.01 17.67 10.02 17.34 9 17 C6.24616077 18.37691962 5.48516899 20.36720042 4 23 C2.68 22.34 1.36 21.68 0 21 C0.99 19.02 1.98 17.04 3 15 C1.72125 15.165 0.4425 15.33 -0.875 15.5 C-2.94627065 15.76726073 -4.91103575 16 -7 16 C-6.47731534 13.23723823 -5.89130413 10.6739124 -5 8 C-4.34 8 -3.68 8 -3 8 C-2.690625 7.05125 -2.38125 6.1025 -2.0625 5.125 C-1 2 -1 2 0 0 Z " fill="#F0EFF2" transform="translate(26,14)"/>
<path d="M0 0 C2.31 0.33 4.62 0.66 7 1 C7 1.33 7 1.66 7 2 C4.69 2.33 2.38 2.66 0 3 C-0.66 5.97 -1.32 8.94 -2 12 C-2.66 12 -3.32 12 -4 12 C-4 12.66 -4 13.32 -4 14 C1.00307047 16.50153523 6.26513209 17.49722703 11.73046875 18.4375 C14 19 14 19 17 21 C16.505 22.485 16.505 22.485 16 24 C15.45859375 23.52949219 14.9171875 23.05898438 14.359375 22.57421875 C11.60698528 20.73777329 9.50442793 20.31616146 6.25 19.8125 C4.77273437 19.57466797 4.77273437 19.57466797 3.265625 19.33203125 C2.51796875 19.22246094 1.7703125 19.11289062 1 19 C0.443125 19.804375 -0.11375 20.60875 -0.6875 21.4375 C-3.21864487 24.24228216 -4.32579134 24.69381595 -8 25 C-8.66 24.01 -9.32 23.02 -10 22 C-12.05925139 21.27617533 -12.05925139 21.27617533 -14 21 C-14 20.34 -14 19.68 -14 19 C-16.31 18.67 -18.62 18.34 -21 18 C-18.77644774 15.4429149 -17.24981807 14.75829088 -14 14 C-13.67 13.34 -13.34 12.68 -13 12 C-14.32 11.67 -15.64 11.34 -17 11 C-15.68 10.67 -14.36 10.34 -13 10 C-12.34 11.32 -11.68 12.64 -11 14 C-10.34 13.34 -9.68 12.68 -9 12 C-8.34 11.67 -7.68 11.34 -7 11 C-6.67 10.01 -6.34 9.02 -6 8 C-5 7 -4 6 -3 5 C-1.96642853 3.35394174 -0.95939668 1.69036558 0 0 Z " fill="#8A56F0" transform="translate(49,23)"/>
<path d="M0 0 C0.66 0 1.32 0 2 0 C1.63007351 2.63711389 1.22393659 3.78725551 -0.73413086 5.64746094 C-1.47026611 6.17114258 -2.20640137 6.69482422 -2.96484375 7.234375 C-3.76470703 7.80800781 -4.56457031 8.38164062 -5.38867188 8.97265625 C-6.22978516 9.55917969 -7.07089844 10.14570313 -7.9375 10.75 C-8.77474609 11.35199219 -9.61199219 11.95398438 -10.47460938 12.57421875 C-16.71184984 17 -16.71184984 17 -19 17 C-19 17.66 -19 18.32 -19 19 C-21.96175123 18.38722388 -23.38058783 17.74627478 -26 16 C-26 15.34 -26 14.68 -26 14 C-27.32 13.34 -28.64 12.68 -30 12 C-29.34 11.34 -28.68 10.68 -28 10 C-31.11227195 10 -33.94152152 10.45627049 -37 11 C-35.40854078 7.81708156 -33.26648604 7.24171216 -30 6 C-27.29162045 6.257806 -24.8855361 6.62544575 -22.25 7.1875 C-16.63389576 8.17167261 -13.25399094 8.33440491 -8.25 5.125 C-7.51265625 4.55007812 -6.7753125 3.97515625 -6.015625 3.3828125 C-4 2 -4 2 0 2 C0 1.34 0 0.68 0 0 Z " fill="#B3A5CD" transform="translate(109,16)"/>
<path d="M0 0 C5.26609651 0.33613382 9.4100244 1.90541621 14.23828125 3.9609375 C18.17867183 5.44346069 22.21420167 6.26722778 26.3359375 7.09375 C29.45338549 8.15423084 30.7107157 9.69232787 33 12 C39.1969409 13.83378863 44.96332035 12.90043619 51 11 C49.39484598 14.21030804 47.31165999 14.7581275 44 16 C40.93072638 16.00539415 38.01274193 15.55935098 35 15 C33.989375 14.814375 32.97875 14.62875 31.9375 14.4375 C31.298125 14.293125 30.65875 14.14875 30 14 C30 13.34 30 12.68 30 12 C27.21276343 11.4136018 27.21276343 11.4136018 24 12 C22.4168857 13.71182277 21.26955587 15.46714614 20.078125 17.46875 C19.72234375 17.9740625 19.3665625 18.479375 19 19 C18.34 19 17.68 19 17 19 C16.87625 19.5775 16.7525 20.155 16.625 20.75 C15.99351176 23.02335767 15.11141809 24.9253529 14 27 C13.34 27 12.68 27 12 27 C11.34 25.35 10.68 23.7 10 22 C8.68 22 7.36 22 6 22 C6.33 21.01 6.66 20.02 7 19 C7.99 18.67 8.98 18.34 10 18 C10 18.66 10 19.32 10 20 C12.70869866 19.32282534 14.52093027 18.71022925 16.1171875 16.34375 C16.44976562 15.7146875 16.78234375 15.085625 17.125 14.4375 C19 11 19 11 22 10 C19.64756508 9.03722741 17.29320381 8.07971502 14.9375 7.125 C14.28072266 6.85558594 13.62394531 6.58617187 12.94726562 6.30859375 C8.68305509 4.58610477 4.44291687 3.19017019 0 2 C-0.309375 2.94875 -0.61875 3.8975 -0.9375 4.875 C-2 8 -2 8 -3 10 C-3.66 9.67 -4.32 9.34 -5 9 C-4.3566152 7.686298 -3.71021785 6.37407102 -3.0625 5.0625 C-2.70285156 4.33160156 -2.34320312 3.60070312 -1.97265625 2.84765625 C-1 1 -1 1 0 0 Z " fill="#917FB6" transform="translate(26,12)"/>
<path d="M0 0 C4.96101404 1.21849468 8.53531556 3.806669 12.5625 6.875 C11.5725 7.37 11.5725 7.37 10.5625 7.875 C9.5725 7.545 8.5825 7.215 7.5625 6.875 C8.078125 7.65875 8.59375 8.4425 9.125 9.25 C9.599375 10.11625 10.07375 10.9825 10.5625 11.875 C10.2325 12.535 9.9025 13.195 9.5625 13.875 C11.2125 14.535 12.8625 15.195 14.5625 15.875 C14.5625 16.535 14.5625 17.195 14.5625 17.875 C12.5825 18.205 10.6025 18.535 8.5625 18.875 C8.2325 17.555 7.9025 16.235 7.5625 14.875 C6.5725 14.875 5.5825 14.875 4.5625 14.875 C1.5625 14.875 1.5625 14.875 0.17578125 13.5625 C-1.02864583 12 -2.23307292 10.4375 -3.4375 8.875 C-2.7775 8.545 -2.1175 8.215 -1.4375 7.875 C-1.1075 6.885 -0.7775 5.895 -0.4375 4.875 C-1.0975 4.875 -1.7575 4.875 -2.4375 4.875 C-2.4375 5.535 -2.4375 6.195 -2.4375 6.875 C-8.0625 8.875 -8.0625 8.875 -11.4375 8.875 C-4.8775 1.24154545 -4.8775 1.24154545 0 0 Z " fill="#AC99D0" transform="translate(111.4375,11.125)"/>
<path d="M0 0 C0.99 0 1.98 0 3 0 C3.495 1.485 3.495 1.485 4 3 C3.34 3 2.68 3 2 3 C2 4.98 2 6.96 2 9 C2.66 9 3.32 9 4 9 C4 9.99 4 10.98 4 12 C4.66 12.33 5.32 12.66 6 13 C4.68 13 3.36 13 2 13 C1.01 10.69 0.02 8.38 -1 6 C-1.66 6 -2.32 6 -3 6 C-3 6.66 -3 7.32 -3 8 C-5.7040805 9.32192799 -8.41269268 10.63264821 -11.125 11.9375 C-12.26582031 12.49727539 -12.26582031 12.49727539 -13.4296875 13.06835938 C-21.74596306 17.04726708 -21.74596306 17.04726708 -26 17 C-28.9921875 15.12890625 -28.9921875 15.12890625 -31.875 12.5625 C-33.32519531 11.29599609 -33.32519531 11.29599609 -34.8046875 10.00390625 C-35.52914062 9.34261719 -36.25359375 8.68132813 -37 8 C-33.2734375 6.8984375 -33.2734375 6.8984375 -30.8125 7.8125 C-29 9 -29 9 -28 11 C-27.01 11.33 -26.02 11.66 -25 12 C-25 12.66 -25 13.32 -25 14 C-24.34 14.33 -23.68 14.66 -23 15 C-22.67 14.34 -22.34 13.68 -22 13 C-20.22265625 12.21875 -20.22265625 12.21875 -18.0625 11.5 C-15.29544796 10.57597536 -14.10862631 10.10862631 -12 8 C-8.23295164 4.56780038 -6.12390408 2.7319863 -1 2 C-0.67 1.34 -0.34 0.68 0 0 Z " fill="#7A50CC" transform="translate(124,54)"/>
<path d="M0 0 C0.99 0 1.98 0 3 0 C4.4606285 2.64738916 5 3.89448334 5 7 C5.99 7.33 6.98 7.66 8 8 C8 8.99 8 9.98 8 11 C6.68 10.67 5.36 10.34 4 10 C4 9.34 4 8.68 4 8 C3.01 8.495 3.01 8.495 2 9 C2.309375 9.598125 2.61875 10.19625 2.9375 10.8125 C4 13 4 13 5 16 C2.53183586 17.23408207 0.75338799 17.20197579 -2 17.25 C-2.886875 17.27578125 -3.77375 17.3015625 -4.6875 17.328125 C-5.450625 17.21984375 -6.21375 17.1115625 -7 17 C-9 14 -9 14 -8.625 11.3125 C-8.41875 10.549375 -8.2125 9.78625 -8 9 C-7.01 8.67 -6.02 8.34 -5 8 C-3.74335022 10.90600261 -3 12.79604584 -3 16 C-2.34 15.67 -1.68 15.34 -1 15 C-1 14.01 -1 13.02 -1 12 C-1.66 12 -2.32 12 -3 12 C-3 10.02 -3 8.04 -3 6 C-2.01 6 -1.02 6 0 6 C0 4.02 0 2.04 0 0 Z " fill="#745BA6" transform="translate(129,51)"/>
<path d="M0 0 C0.99 0 1.98 0 3 0 C4.60546875 2.1875 4.60546875 2.1875 6.1875 5 C6.71730469 5.928125 7.24710937 6.85625 7.79296875 7.8125 C8.19128906 8.534375 8.58960937 9.25625 9 10 C9.33 6.7 9.66 3.4 10 0 C10.99 0.33 11.98 0.66 13 1 C13 6.28 13 11.56 13 17 C12.01 17 11.02 17 10 17 C8.17578125 14.59375 8.17578125 14.59375 6.3125 11.5 C5.68988281 10.4790625 5.06726563 9.458125 4.42578125 8.40625 C3.95527344 7.6121875 3.48476562 6.818125 3 6 C2.67 9.63 2.34 13.26 2 17 C1.34 17 0.68 17 0 17 C0 11.39 0 5.78 0 0 Z " fill="#4D367B" transform="translate(70,136)"/>
<path d="M0 0 C2.75630442 0.41262513 2.75630442 0.41262513 5.5625 0.5625 C8.8478998 0.7857796 11.816503 1.18577226 15 2 C16.99963028 2.03845443 19.00051633 2.04544281 21 2 C20.67 2.66 20.34 3.32 20 4 C14.87416389 4.10251672 10.05002222 4.03590199 5 3 C7.29629994 4.14814997 9.07698086 4.30769809 11.625 4.5625 C12.44226563 4.64628906 13.25953125 4.73007812 14.1015625 4.81640625 C14.72804688 4.87699219 15.35453125 4.93757813 16 5 C15.67 5.66 15.34 6.32 15 7 C7.29960342 7.28936772 -0.40611099 7.39592601 -7 3 C-7.6875 0.875 -7.6875 0.875 -8 -1 C-4.28188095 -2.23937302 -3.5170348 -1.45122875 0 0 Z " fill="#9E88CA" transform="translate(73,44)"/>
<path d="M0 0 C2.69513405 0.19817162 3.77144982 0.39822956 6 2 C7.74218777 6.46435617 7.83523945 11.26660024 6.19140625 15.78515625 C5 17.5625 5 17.5625 1.625 18.5 C-2 18.5625 -2 18.5625 -4.375 17.3125 C-6.775406 14.72744738 -6.99214482 12.66854497 -7.25 9.1875 C-6.86934238 3.66796453 -5.8939777 0.32503554 0 0 Z M-4 3.5625 C-4.8235953 7.13141297 -5.15637164 9.84319045 -4.375 13.4375 C-3.15418334 15.82227266 -3.15418334 15.82227266 -0.375 16.375 C0.40875 16.436875 1.1925 16.49875 2 16.5625 C4.49688253 13.9615807 4.99079384 12.66745017 5.3125 9 C5.26470228 5.44270391 5.26470228 5.44270391 3 2.5625 C0.19438238 2.28193824 -1.46578263 2.29539132 -4 3.5625 Z " fill="#5A4584" transform="translate(118,135.4375)"/>
<path d="M0 0 C1.69140625 1.18359375 1.69140625 1.18359375 3 3 C3.81791688 7.82644643 3.87793368 12.45483672 1.4375 16.75 C-2.07178131 18.54963144 -4.26411481 18.03774589 -8 17 C-10.22264871 13.66602694 -10.29675463 12.40485109 -10.3125 8.5 C-10.32925781 7.5409375 -10.34601562 6.581875 -10.36328125 5.59375 C-10 3 -10 3 -8.69921875 1.1796875 C-5.85455241 -0.79523028 -3.33709156 -0.35754552 0 0 Z M-4 1 C-6.17728073 1.87644433 -6.17728073 1.87644433 -8 4 C-8.54040159 7.05469107 -8.61207008 9.95619202 -8 13 C-6.73369654 14.83996814 -6.73369654 14.83996814 -5 16 C-2.3727086 15.92466753 -2.3727086 15.92466753 0 15 C1.72106221 11.55787557 1.64631493 7.75412714 1 4 C-1.33749166 1.84397306 -1.33749166 1.84397306 -4 1 Z " fill="#5C4489" transform="translate(64,136)"/>
<path d="M0 0 C6.8359375 -0.29296875 6.8359375 -0.29296875 9 0 C11 3 11 3 10.625 6 C10.41875 6.99 10.2125 7.98 10 9 C10 12.20395416 10.74335022 14.09399739 12 17 C11.01 17 10.02 17 9 17 C8.5875 16.030625 8.175 15.06125 7.75 14.0625 C6.35100832 10.87739901 6.35100832 10.87739901 3.8125 10.125 C3.214375 10.08375 2.61625 10.0425 2 10 C2 12.31 2 14.62 2 17 C1.34 17 0.68 17 0 17 C0 11.39 0 5.78 0 0 Z M3 2 C1.70366379 3.06645115 1.70366379 3.06645115 1.9375 5.5625 C1.958125 6.366875 1.97875 7.17125 2 8 C4.41645782 8.16687448 4.41645782 8.16687448 7 8 C7.66 7.34 8.32 6.68 9 6 C9 5.01 9 4.02 9 3 C7.0085944 2.61866701 5.00720923 2.28674418 3 2 Z " fill="#4E4069" transform="translate(98,136)"/>
<path d="M0 0 C1.2077558 3.62326739 0.54311128 4.64146369 -1 8 C-0.37351562 7.84402344 0.25296875 7.68804688 0.8984375 7.52734375 C2.12433594 7.23537109 2.12433594 7.23537109 3.375 6.9375 C4.18710937 6.74027344 4.99921875 6.54304688 5.8359375 6.33984375 C8 6 8 6 10 7 C9.01 8.98 8.02 10.96 7 13 C8.32 13 9.64 13 11 13 C12.66666667 13 14.33333333 13 16 13 C15.67 13.99 15.34 14.98 15 16 C6.57142857 17.42857143 6.57142857 17.42857143 2 15 C2.66 13.35 3.32 11.7 4 10 C2.02 10.66 0.04 11.32 -2 12 C-2.66 11.01 -3.32 10.02 -4 9 C-3.57421875 6.9921875 -3.57421875 6.9921875 -2.6875 4.875 C-2.40261719 4.17117187 -2.11773438 3.46734375 -1.82421875 2.7421875 C-1 1 -1 1 0 0 Z " fill="#A081DD" transform="translate(20,22)"/>
<path d="M0 0 C0.66 0 1.32 0 2 0 C1.62328533 2.59189557 1.21004257 3.79087826 -0.6706543 5.66333008 C-2.99705824 7.39844079 -5.33008138 9.11966298 -7.6875 10.8125 C-8.49123047 11.42287109 -9.29496094 12.03324219 -10.12304688 12.66210938 C-16.10002026 16.9970034 -16.10002026 16.9970034 -20.51953125 17.01171875 C-23 16 -23 16 -24 14 C-23.38511719 13.86722656 -22.77023438 13.73445313 -22.13671875 13.59765625 C-21.32847656 13.42105469 -20.52023438 13.24445312 -19.6875 13.0625 C-18.88699219 12.88847656 -18.08648437 12.71445312 -17.26171875 12.53515625 C-14.854599 12.00113841 -14.854599 12.00113841 -12 11 C-12 10.34 -12 9.68 -12 9 C-11.34 9 -10.68 9 -10 9 C-9.938125 8.401875 -9.87625 7.80375 -9.8125 7.1875 C-8.64934748 4.05593552 -6.96996683 3.38137992 -4 2 C-2.68 2 -1.36 2 0 2 C0 1.34 0 0.68 0 0 Z " fill="#D6D0E3" transform="translate(109,16)"/>
<path d="M0 0 C3.3 0.66 6.6 1.32 10 2 C10 2.99 10 3.98 10 5 C10.66 5 11.32 5 12 5 C12 5.99 12 6.98 12 8 C7.46298506 9.45184478 3.81938524 10.23509196 -1 10 C-0.34 8.68 0.32 7.36 1 6 C3.31 6 5.62 6 8 6 C6.87568002 4.64209699 6.87568002 4.64209699 3.9453125 4.97265625 C1.40358028 5.03243114 -1.13808959 5.09492016 -3.6796875 5.16015625 C-7 5 -7 5 -10 3 C-9.34 2.67 -8.68 2.34 -8 2 C-7.34 2.33 -6.68 2.66 -6 3 C-4.00039988 3.039992 -1.99952758 3.04346799 0 3 C0 2.01 0 1.02 0 0 Z " fill="#A793CD" transform="translate(91,35)"/>
<path d="M0 0 C1.72880982 -0.05449838 3.45812712 -0.09301688 5.1875 -0.125 C6.15042969 -0.14820312 7.11335938 -0.17140625 8.10546875 -0.1953125 C11.1567136 0.01057447 13.23203757 0.74394982 16 2 C16.99 2.33 17.98 2.66 19 3 C11.74033031 6.75500157 7.68616635 5.26063716 0 3 C0 2.01 0 1.02 0 0 Z " fill="#F8F8F8" transform="translate(51,27)"/>
<path d="M0 0 C-0.33 0.99 -0.66 1.98 -1 3 C-1.598125 2.79375 -2.19625 2.5875 -2.8125 2.375 C-5.28450846 1.69328085 -5.28450846 1.69328085 -8 4 C-8.36460453 6.66653905 -8.36460453 6.66653905 -8.1875 9.625 C-8.16042969 10.62789062 -8.13335937 11.63078125 -8.10546875 12.6640625 C-8.07066406 13.43492187 -8.03585938 14.20578125 -8 15 C-5.36 15 -2.72 15 0 15 C0 15.66 0 16.32 0 17 C-5.37154989 18.22080679 -5.37154989 18.22080679 -8.3125 17.1875 C-10 16 -10 16 -11 14 C-11.14716542 12.19156337 -11.2210887 10.37668434 -11.25 8.5625 C-11.27578125 7.59441406 -11.3015625 6.62632812 -11.328125 5.62890625 C-11 3 -11 3 -9.74609375 1.1640625 C-6.64164903 -0.90556732 -3.63714626 -0.17887605 0 0 Z " fill="#5A4484" transform="translate(51,136)"/>
<path d="M0 0 C3.96 0 7.92 0 12 0 C12 0.66 12 1.32 12 2 C10.68 2 9.36 2 8 2 C8 6.95 8 11.9 8 17 C7.01 17 6.02 17 5 17 C5 12.05 5 7.1 5 2 C3.35 1.67 1.7 1.34 0 1 C0 0.67 0 0.34 0 0 Z " fill="#4D3D6C" transform="translate(84,136)"/>
<path d="M0 0 C0.66 1.32 1.32 2.64 2 4 C1.01 4.33 0.02 4.66 -1 5 C-1.33 5.99 -1.66 6.98 -2 8 C-4.14453125 9.3515625 -4.14453125 9.3515625 -6.8125 10.625 C-7.68519531 11.05039063 -8.55789062 11.47578125 -9.45703125 11.9140625 C-11.64901917 12.85011879 -13.67442231 13.51211657 -16 14 C-16.33 13.01 -16.66 12.02 -17 11 C-13.44805403 8.89782789 -10.02791538 6.95430271 -6.1875 5.4375 C-2.77546996 4.23785312 -2.77546996 4.23785312 -1 1 C-0.67 0.67 -0.34 0.34 0 0 Z " fill="#8E5DF0" transform="translate(115,55)"/>
<path d="M0 0 C2.64 0.66 5.28 1.32 8 2 C8 2.99 8 3.98 8 5 C7.34 5 6.68 5 6 5 C5.34 6.65 4.68 8.3 4 10 C1.6875 10.25 1.6875 10.25 -1 10 C-2.875 8.1875 -2.875 8.1875 -4 6 C-3.67 5.01 -3.34 4.02 -3 3 C-2.34 3 -1.68 3 -1 3 C-1 3.66 -1 4.32 -1 5 C0.32 5.33 1.64 5.66 3 6 C2.67 5.01 2.34 4.02 2 3 C1.34 2.67 0.68 2.34 0 2 C0 1.34 0 0.68 0 0 Z " fill="#7863A0" transform="translate(134,56)"/>
<path d="M0 0 C0.33 0.66 0.66 1.32 1 2 C6.41701889 5.28890433 12.83973715 5.36921056 19 6 C19 6.66 19 7.32 19 8 C18.33613281 7.98839844 17.67226562 7.97679687 16.98828125 7.96484375 C12.47424811 7.91871494 8.42798932 8.08835514 4 9 C1.6875 8.5625 1.6875 8.5625 0 8 C0 5.36 0 2.72 0 0 Z " fill="#BBADD7" transform="translate(48,30)"/>
<path d="M0 0 C2.125 0.375 2.125 0.375 4 1 C4 3.31 4 5.62 4 8 C3.67 7.34 3.34 6.68 3 6 C2.01 5.67 1.02 5.34 0 5 C-2.75383923 6.37691962 -3.51483101 8.36720042 -5 11 C-6.32 10.34 -7.64 9.68 -9 9 C-7.75 6.0625 -7.75 6.0625 -6 3 C-3.9375 2.25 -3.9375 2.25 -2 2 C-1.34 1.34 -0.68 0.68 0 0 Z " fill="#DBD6E3" transform="translate(35,26)"/>
<path d="M0 0 C2.26862395 1.60694196 4.15983077 2.95655626 6 5 C6.7016394 9.20983641 5.79701721 12.18133843 4 16 C0.125 14.25 0.125 14.25 -1 12 C-0.01 11.67 0.98 11.34 2 11 C1.67 9.741875 1.34 8.48375 1 7.1875 C0.32396773 4.61012698 0 2.69787075 0 0 Z " fill="#9280B5" transform="translate(135,28)"/>
<path d="M0 0 C6.5503876 0.50387597 6.5503876 0.50387597 8.8125 3 C12.33243039 6.21822207 16.36399343 6.08995237 21 6 C23.79857596 5.54556885 26.28446065 4.85489202 29 4 C27.39484598 7.21030804 25.31165999 7.7581275 22 9 C18.93072638 9.00539415 16.01274193 8.55935098 13 8 C11.989375 7.814375 10.97875 7.62875 9.9375 7.4375 C9.298125 7.293125 8.65875 7.14875 8 7 C8 6.34 8 5.68 8 5 C6.68 4.67 5.36 4.34 4 4 C4 3.01 4 2.02 4 1 C2.68 0.67 1.36 0.34 0 0 Z " fill="#7D6AA3" transform="translate(48,19)"/>
<path d="M0 0 C1.41377341 2.63904371 2.37240135 5.07120629 3 8 C3.66 7.67 4.32 7.34 5 7 C5 6.34 5 5.68 5 5 C6.32 4.67 7.64 4.34 9 4 C9.66 5.32 10.32 6.64 11 8 C8.53183586 9.23408207 6.75338799 9.20197579 4 9.25 C3.113125 9.27578125 2.22625 9.3015625 1.3125 9.328125 C0.549375 9.21984375 -0.21375 9.1115625 -1 9 C-3 6 -3 6 -2.75 3.375 C-2.5025 2.59125 -2.255 1.8075 -2 1 C-1.34 0.67 -0.68 0.34 0 0 Z " fill="#6B5D85" transform="translate(123,59)"/>
<path d="M0 0 C2.475 0.99 2.475 0.99 5 2 C5.33 1.34 5.66 0.68 6 0 C6.55827609 1.26362492 7.09612097 2.5362919 7.625 3.8125 C7.92664063 4.52019531 8.22828125 5.22789063 8.5390625 5.95703125 C8.69117188 6.63121094 8.84328125 7.30539063 9 8 C8.01 9.485 8.01 9.485 7 11 C7 10.34 7 9.68 7 9 C4.03 8.505 4.03 8.505 1 8 C0.34 5.69 -0.32 3.38 -1 1 C-0.67 0.67 -0.34 0.34 0 0 Z " fill="#6A617E" transform="translate(135,49)"/>
<path d="M0 0 C0.66 0.33 1.32 0.66 2 1 C2 1.66 2 2.32 2 3 C2.33 3.66 2.66 4.32 3 5 C2.34 5.66 1.68 6.32 1 7 C1 6.34 1 5.68 1 5 C-0.5778125 5.7425 -0.5778125 5.7425 -2.1875 6.5 C-5.2503482 7.80202049 -7.63501285 8.57685494 -11 8 C-11.66 7.01 -12.32 6.02 -13 5 C-12.31292969 4.80664062 -11.62585938 4.61328125 -10.91796875 4.4140625 C-10.01691406 4.15367188 -9.11585938 3.89328125 -8.1875 3.625 C-7.29417969 3.36976562 -6.40085938 3.11453125 -5.48046875 2.8515625 C-2.79532104 2.04733339 -2.79532104 2.04733339 0 0 Z " fill="#3E3A45" transform="translate(164,27)"/>
<path d="M0 0 C1.62752231 0.25523874 3.25203196 0.52974494 4.875 0.8125 C6.23238281 1.03873047 6.23238281 1.03873047 7.6171875 1.26953125 C10 2 10 2 12 5 C12.99 5.66 13.98 6.32 15 7 C9.22192976 7.2358396 4.48675196 6.86783046 -1 5 C-0.67 3.35 -0.34 1.7 0 0 Z " fill="#E1DEE7" transform="translate(50,29)"/>
<path d="M0 0 C0.33 0.66 0.66 1.32 1 2 C-0.11375 2.103125 -1.2275 2.20625 -2.375 2.3125 C-3.57125 2.539375 -4.7675 2.76625 -6 3 C-6.99 4.485 -6.99 4.485 -8 6 C-8.66 6 -9.32 6 -10 6 C-10.33 6.66 -10.66 7.32 -11 8 C-13.97 7.01 -16.94 6.02 -20 5 C-17.0017825 4.25044562 -14.03063487 3.58929011 -11 3 C-11 2.34 -11 1.68 -11 1 C-5.555 0.505 -5.555 0.505 0 0 Z " fill="#9369E4" transform="translate(98,39)"/>
<path d="M0 0 C1.73828125 1.23046875 1.73828125 1.23046875 3 3 C3.07421875 5.26171875 3.07421875 5.26171875 2.6875 7.6875 C2.50767578 8.89986328 2.50767578 8.89986328 2.32421875 10.13671875 C2.21722656 10.75160156 2.11023438 11.36648437 2 12 C1.67 12 1.34 12 1 12 C0.9175 10.72125 0.835 9.4425 0.75 8.125 C0.54130069 5.94666582 0.54130069 5.94666582 0 4 C-1.92064793 2.4100567 -1.92064793 2.4100567 -4 2 C-4.99 2.66 -5.98 3.32 -7 4 C-7.73606499 7.56769552 -7.73606499 7.56769552 -8 11 C-8.33 11 -8.66 11 -9 11 C-10.3253012 3.65060241 -10.3253012 3.65060241 -9 1 C-5.89077804 -0.55461098 -3.41180361 -0.36555039 0 0 Z " fill="#523F76" transform="translate(64,136)"/>
<path d="M0 0 C4.9274246 -0.20967764 9.06022965 0.39157125 13.84375 1.5546875 C16.59014626 2.12187803 19.20637157 2.143263 22 2 C21.67 2.66 21.34 3.32 21 4 C15.87416389 4.10251672 11.05002222 4.03590199 6 3 C5.67 3.66 5.34 4.32 5 5 C4.01 5 3.02 5 2 5 C2 4.34 2 3.68 2 3 C1.34 3 0.68 3 0 3 C0 2.01 0 1.02 0 0 Z " fill="#A692CE" transform="translate(72,44)"/>
<path d="M0 0 C2.66666667 0 5.33333333 0 8 0 C8.33 0.99 8.66 1.98 9 3 C8.34 3.66 7.68 4.32 7 5 C8.32 5.33 9.64 5.66 11 6 C11 6.66 11 7.32 11 8 C10.21625 7.814375 9.4325 7.62875 8.625 7.4375 C6.02910225 6.74037734 6.02910225 6.74037734 4 8 C2.35 6.02 0.7 4.04 -1 2 C-0.67 1.34 -0.34 0.68 0 0 Z " fill="#9368E7" transform="translate(16,32)"/>
<path d="M0 0 C3.3 0 6.6 0 10 0 C10 2.64 10 5.28 10 8 C6.7 8 3.4 8 0 8 C0 10.31 0 12.62 0 15 C-0.33 15 -0.66 15 -1 15 C-1 12.03 -1 9.06 -1 6 C3.455 5.505 3.455 5.505 8 5 C8.33 3.68 8.66 2.36 9 1 C6.03 1 3.06 1 0 1 C0 0.67 0 0.34 0 0 Z " fill="#7957BD" transform="translate(52,93)"/>
<path d="M0 0 C1.41702513 0.14230808 2.8336096 0.28900746 4.25 0.4375 C5.43335937 0.55931641 5.43335937 0.55931641 6.640625 0.68359375 C9.66237132 1.08882794 12.26804056 1.63402028 15 3 C14 4 14 4 11.125 4.0625 C9.578125 4.0315625 9.578125 4.0315625 8 4 C7.01 4 6.02 4 5 4 C5.99 4.99 6.98 5.98 8 7 C5.69 6.67 3.38 6.34 1 6 C0.67 4.02 0.34 2.04 0 0 Z " fill="#C3B9D8" transform="translate(77,35)"/>
<path d="M0 0 C0.33 0.66 0.66 1.32 1 2 C0.67 2.66 0.34 3.32 0 4 C-0.66 4 -1.32 4 -2 4 C-2 4.66 -2 5.32 -2 6 C-6.15487723 9.24599784 -9.90551202 9.56826373 -15 10 C-15 9.34 -15 8.68 -15 8 C-12.69 7.34 -10.38 6.68 -8 6 C-10.475 5.01 -10.475 5.01 -13 4 C-13 3.67 -13 3.34 -13 3 C-12.39671875 3.03480469 -11.7934375 3.06960937 -11.171875 3.10546875 C-6.07474512 3.3514449 -6.07474512 3.3514449 -1.4375 1.5 C-0.963125 1.005 -0.48875 0.51 0 0 Z " fill="#8A6ACA" transform="translate(99,21)"/>
<path d="M0 0 C0.66 0.33 1.32 0.66 2 1 C1.67 1.99 1.34 2.98 1 4 C1.33 4.99 1.66 5.98 2 7 C1.01 7.33 0.02 7.66 -1 8 C0.65 8.33 2.3 8.66 4 9 C4 9.33 4 9.66 4 10 C2.02 10 0.04 10 -2 10 C-2 10.99 -2 11.98 -2 13 C-2.99 12.67 -3.98 12.34 -5 12 C-4.42365861 7.24518354 -2.44931479 4.02951788 0 0 Z " fill="#8256D9" transform="translate(15,30)"/>
<path d="M0 0 C0.66 0 1.32 0 2 0 C2.33 4.95 2.66 9.9 3 15 C5.97 15.495 5.97 15.495 9 16 C9 16.33 9 16.66 9 17 C6.03 17 3.06 17 0 17 C0 11.39 0 5.78 0 0 Z " fill="#755DA4" transform="translate(128,136)"/>
<path d="M0 0 C5.31016247 0.77083004 8.67089406 3.35937166 12.875 6.5625 C11.885 7.0575 11.885 7.0575 10.875 7.5625 C8.88671875 6.78515625 8.88671875 6.78515625 6.5625 5.625 C3.13314969 4.02316863 0.71562163 3.11066216 -3.125 3.5625 C-4.115 3.5625 -5.105 3.5625 -6.125 3.5625 C-4.28190406 0.9604822 -3.18562846 0.57341312 0 0 Z " fill="#504C56" transform="translate(111.125,11.4375)"/>
<path d="M0 0 C0.99 0.33 1.98 0.66 3 1 C3 4.96 3 8.92 3 13 C2.01 13.33 1.02 13.66 0 14 C-1.10370043 10.6888987 -0.92673641 8.75251051 -0.5625 5.3125 C-0.46066406 4.31863281 -0.35882813 3.32476562 -0.25390625 2.30078125 C-0.17011719 1.54152344 -0.08632812 0.78226563 0 0 Z " fill="#2E1D51" transform="translate(80,136)"/>
<path d="M0 0 C-0.99 0.495 -0.99 0.495 -2 1 C-1.34 2.65 -0.68 4.3 0 6 C-3.30435084 7.12377697 -5.0506862 6.89554742 -8.25 5.5625 C-8.95640625 5.27503906 -9.6628125 4.98757812 -10.390625 4.69140625 C-10.92171875 4.46324219 -11.4528125 4.23507813 -12 4 C-11.34 3.34 -10.68 2.68 -10 2 C-9.34 2 -8.68 2 -8 2 C-4.77208445 -0.1519437 -3.71599191 -0.20086443 0 0 Z " fill="#DAD4E4" transform="translate(79,34)"/>
<path d="M0 0 C0.33 0.66 0.66 1.32 1 2 C0.34 2.66 -0.32 3.32 -1 4 C-1.66 4 -2.32 4 -3 4 C-3.66 3.01 -4.32 2.02 -5 1 C-5.66 1 -6.32 1 -7 1 C-7 1.66 -7 2.32 -7 3 C-12.625 5 -12.625 5 -16 5 C-10.60399704 -0.78143174 -7.66194415 -1.5072677 0 0 Z " fill="#9B90B2" transform="translate(116,15)"/>
<path d="M0 0 C0.33 0 0.66 0 1 0 C1 2.64 1 5.28 1 8 C2.093125 8.020625 3.18625 8.04125 4.3125 8.0625 C8 9 8 9 9.1328125 10.625 C9.9375 12.5625 9.9375 12.5625 11 16 C10.01 16 9.02 16 8 16 C7.5875 15.030625 7.175 14.06125 6.75 13.0625 C5.35100832 9.87739901 5.35100832 9.87739901 2.8125 9.125 C2.214375 9.08375 1.61625 9.0425 1 9 C1 11.31 1 13.62 1 16 C0.67 16 0.34 16 0 16 C0 10.72 0 5.44 0 0 Z " fill="#694F9B" transform="translate(99,137)"/>
<path d="M0 0 C1.32 0.33 2.64 0.66 4 1 C-3.83195492 7.97914205 -3.83195492 7.97914205 -8.5 8.0625 C-11 7 -11 7 -12 5 C-11.38511719 4.86722656 -10.77023438 4.73445313 -10.13671875 4.59765625 C-9.32847656 4.42105469 -8.52023438 4.24445312 -7.6875 4.0625 C-6.48673828 3.80146484 -6.48673828 3.80146484 -5.26171875 3.53515625 C-2.854599 3.00113841 -2.854599 3.00113841 0 2 C0 1.34 0 0.68 0 0 Z " fill="#E7E3F0" transform="translate(97,25)"/>
<path d="M0 0 C1.23556641 0.01740234 1.23556641 0.01740234 2.49609375 0.03515625 C3.32238281 0.04417969 4.14867188 0.05320312 5 0.0625 C5.63808594 0.07410156 6.27617188 0.08570312 6.93359375 0.09765625 C6.93359375 0.42765625 6.93359375 0.75765625 6.93359375 1.09765625 C4.62359375 1.09765625 2.31359375 1.09765625 -0.06640625 1.09765625 C-0.06640625 3.40765625 -0.06640625 5.71765625 -0.06640625 8.09765625 C1.91359375 8.09765625 3.89359375 8.09765625 5.93359375 8.09765625 C5.93359375 8.42765625 5.93359375 8.75765625 5.93359375 9.09765625 C-0.21875 9.1953125 -0.21875 9.1953125 -2.06640625 9.09765625 C-3.06640625 8.09765625 -3.06640625 8.09765625 -3.19140625 4.59765625 C-3.03232226 0.14330445 -3.03232226 0.14330445 0 0 Z " fill="#6A47B0" transform="translate(79.06640625,84.90234375)"/>
<path d="M0 0 C2.97 0 5.94 0 9 0 C9.66 1.32 10.32 2.64 11 4 C11.66 4.33 12.32 4.66 13 5 C8.03083364 4.48594831 3.70973649 3.76615118 -1 2 C-0.67 1.34 -0.34 0.68 0 0 Z " fill="#7B62AC" transform="translate(30,44)"/>
<path d="M0 0 C1.2077558 3.62326739 0.54311128 4.64146369 -1 8 C0.65 7.67 2.3 7.34 4 7 C4 7.99 4 8.98 4 10 C2.02 10.66 0.04 11.32 -2 12 C-2.66 11.01 -3.32 10.02 -4 9 C-3.57421875 6.9921875 -3.57421875 6.9921875 -2.6875 4.875 C-2.40261719 4.17117187 -2.11773438 3.46734375 -1.82421875 2.7421875 C-1 1 -1 1 0 0 Z " fill="#907DB6" transform="translate(20,22)"/>
<path d="M0 0 C4.2026393 2.63886654 7.56638098 5.36440339 11 9 C9.25 9.75 9.25 9.75 7 10 C4.9375 8.1875 4.9375 8.1875 3 6 C2.01 5.34 1.02 4.68 0 4 C0 2.68 0 1.36 0 0 Z " fill="#9E99A7" transform="translate(124,19)"/>
<path d="M0 0 C1.32 0.33 2.64 0.66 4 1 C4 1.66 4 2.32 4 3 C4.99 3 5.98 3 7 3 C7 3.66 7 4.32 7 5 C4.72942623 5.05398987 2.45848712 5.09278742 0.1875 5.125 C-1.70935547 5.15980469 -1.70935547 5.15980469 -3.64453125 5.1953125 C-7 5 -7 5 -10 3 C-9.34 2.67 -8.68 2.34 -8 2 C-7.34 2.33 -6.68 2.66 -6 3 C-4.00039988 3.039992 -1.99952758 3.04346799 0 3 C0 2.01 0 1.02 0 0 Z " fill="#9B7DD7" transform="translate(91,35)"/>
<path d="M0 0 C0.66 0.66 1.32 1.32 2 2 C0.9375 4.4375 0.9375 4.4375 -1 7 C-4.6875 7.8125 -4.6875 7.8125 -8 8 C-8.33 7.01 -8.66 6.02 -9 5 C-8.2575 4.731875 -7.515 4.46375 -6.75 4.1875 C-4.13363446 3.05770579 -2.19812889 1.79106798 0 0 Z " fill="#D7D0E4" transform="translate(32,22)"/>
<path d="M0 0 C-0.33 0.99 -0.66 1.98 -1 3 C-1.598125 2.79375 -2.19625 2.5875 -2.8125 2.375 C-5.28450846 1.69328085 -5.28450846 1.69328085 -8 4 C-8.73606499 7.56769552 -8.73606499 7.56769552 -9 11 C-9.33 11 -9.66 11 -10 11 C-11.31965272 3.68192581 -11.31965272 3.68192581 -10.0625 1 C-6.73364134 -0.61399208 -3.66695493 -0.18034205 0 0 Z " fill="#4D3D6D" transform="translate(51,136)"/>
<path d="M0 0 C0.99 0 1.98 0 3 0 C3.33 0.99 3.66 1.98 4 3 C3.34 3 2.68 3 2 3 C2 4.98 2 6.96 2 9 C2.66 9 3.32 9 4 9 C4 9.99 4 10.98 4 12 C4.66 12.33 5.32 12.66 6 13 C4.68 13 3.36 13 2 13 C0.21590198 9.93753253 -0.22880021 7.77920727 -0.125 4.25 C-0.10695313 3.45078125 -0.08890625 2.6515625 -0.0703125 1.828125 C-0.04710938 1.22484375 -0.02390625 0.6215625 0 0 Z " fill="#8363C3" transform="translate(124,54)"/>
<path d="M0 0 C2.1519437 3.22791555 2.20086443 4.28400809 2 8 C1.01 8 0.02 8 -1 8 C-1 7.01 -1 6.02 -1 5 C-1.9590625 4.566875 -1.9590625 4.566875 -2.9375 4.125 C-5 3 -5 3 -6 1 C-4.02 0.67 -2.04 0.34 0 0 Z " fill="#A894CE" transform="translate(134,28)"/>
<path d="M0 0 C2.475 0.495 2.475 0.495 5 1 C5.12375 1.61875 5.2475 2.2375 5.375 2.875 C5.87197356 5.19120832 5.87197356 5.19120832 8 7 C7.67 7.66 7.34 8.32 7 9 C4.5625 8.25 4.5625 8.25 2 7 C1.25 5.0625 1.25 5.0625 1 3 C0.67 2.01 0.34 1.02 0 0 Z " fill="#CCC6D7" transform="translate(119,18)"/>
<path d="M0 0 C2.01822917 0.06510417 4.03645833 0.13020833 6.0546875 0.1953125 C6.7146875 1.5153125 7.3746875 2.8353125 8.0546875 4.1953125 C7.0646875 4.6903125 7.0646875 4.6903125 6.0546875 5.1953125 C5.7246875 4.5353125 5.3946875 3.8753125 5.0546875 3.1953125 C2.7446875 3.1953125 0.4346875 3.1953125 -1.9453125 3.1953125 C-2.2753125 4.1853125 -2.6053125 5.1753125 -2.9453125 6.1953125 C-3.5703125 4.3203125 -3.5703125 4.3203125 -3.9453125 2.1953125 C-1.9453125 0.1953125 -1.9453125 0.1953125 0 0 Z " fill="#4F3D72" transform="translate(115.9453125,135.8046875)"/>
<path d="M0 0 C5.01290472 1.43225849 6.98038618 3.94509001 10 8 C10 8.33 10 8.66 10 9 C7.6875 9.3125 7.6875 9.3125 5 9 C3.3125 6.75 3.3125 6.75 2 4 C1.608125 3.236875 1.21625 2.47375 0.8125 1.6875 C0.544375 1.130625 0.27625 0.57375 0 0 Z " fill="#AEA0C8" transform="translate(128,31)"/>
<path d="M0 0 C2 1 2 1 3.125 4.0625 C3.41375 5.031875 3.7025 6.00125 4 7 C3.01 7 2.02 7 1 7 C2.32 7.66 3.64 8.32 5 9 C4.67 9.99 4.34 10.98 4 12 C1.69 10.02 -0.62 8.04 -3 6 C-2.34 5.34 -1.68 4.68 -1 4 C-0.3574765 1.93125966 -0.3574765 1.93125966 0 0 Z " fill="#9F83D6" transform="translate(111,15)"/>
<path d="M0 0 C2.10544013 0.28232721 4.20933589 0.5761898 6.3125 0.875 C7.48425781 1.03742187 8.65601563 1.19984375 9.86328125 1.3671875 C13 2 13 2 16 4 C15.67 4.99 15.34 5.98 15 7 C14.2884375 6.319375 14.2884375 6.319375 13.5625 5.625 C10.43851087 3.64393372 7.63387055 3.15707044 4.0234375 2.52734375 C2 2 2 2 0 0 Z " fill="#795EB0" transform="translate(50,40)"/>
<path d="M0 0 C1.6065676 0.25620684 3.2102483 0.53055871 4.8125 0.8125 C6.15248047 1.03873047 6.15248047 1.03873047 7.51953125 1.26953125 C10.18321256 2.05395393 11.25690322 2.88627799 13 5 C11.906875 4.835 10.81375 4.67 9.6875 4.5 C6.12474127 3.93281816 6.12474127 3.93281816 3 4 C0.8125 3 0.8125 3 -1 2 C-0.67 1.34 -0.34 0.68 0 0 Z " fill="#CFC7DD" transform="translate(65,40)"/>
<path d="M0 0 C-0.38597015 2.79828356 -0.80136573 3.8205884 -2.9375 5.75 C-5 7 -5 7 -7 7 C-7 5.68 -7 4.36 -7 3 C-4.49515403 0.58152803 -3.53986194 0 0 0 Z " fill="#7651BF" transform="translate(165,32)"/>
<path d="M0 0 C0.66 0 1.32 0 2 0 C2 0.66 2 1.32 2 2 C2.66 2 3.32 2 4 2 C4 2.66 4 3.32 4 4 C4.66 4 5.32 4 6 4 C6 4.99 6 5.98 6 7 C4.68 7 3.36 7 2 7 C0.1875 5.1875 0.1875 5.1875 -1 3 C-0.67 2.01 -0.34 1.02 0 0 Z " fill="#8A6BC8" transform="translate(131,59)"/>
<path d="M0 0 C6.47556391 0.61090226 6.47556391 0.61090226 8.9375 2.4375 C10 4 10 4 10 6 C5.16743695 5.58578031 3.17320782 3.53586014 0 0 Z " fill="#8162BE" transform="translate(87,61)"/>
<path d="M0 0 C0.33 0.66 0.66 1.32 1 2 C1.99 2 2.98 2 4 2 C4 2.66 4 3.32 4 4 C4.66 4.33 5.32 4.66 6 5 C4.741875 5.04125 3.48375 5.0825 2.1875 5.125 C1.47980469 5.14820313 0.77210937 5.17140625 0.04296875 5.1953125 C-2 5 -2 5 -5 3 C-5 2.34 -5 1.68 -5 1 C-3.35 0.67 -1.7 0.34 0 0 Z " fill="#A185D9" transform="translate(31,40)"/>
<path d="M0 0 C7.75 0.75 7.75 0.75 10 3 C7 5 7 5 3.8125 4.625 C2.884375 4.41875 1.95625 4.2125 1 4 C0.67 2.68 0.34 1.36 0 0 Z " fill="#E8E5EC" transform="translate(66,33)"/>
<path d="M0 0 C0.66 0 1.32 0 2 0 C1.52651586 4.1666604 0.95303159 6.92884715 -2 10 C-2.66 10 -3.32 10 -4 10 C-4 8.02 -4 6.04 -4 4 C-3.01 3.67 -2.02 3.34 -1 3 C-0.67 2.01 -0.34 1.02 0 0 Z " fill="#9267E8" transform="translate(43,31)"/>
<path d="M0 0 C0.66 0.33 1.32 0.66 2 1 C-3.1581464 4.62167726 -6.05114653 5.39880692 -12.27734375 4.359375 C-12.84582031 4.24078125 -13.41429687 4.1221875 -14 4 C-14 3.67 -14 3.34 -14 3 C-13.24074219 2.86722656 -12.48148438 2.73445313 -11.69921875 2.59765625 C-10.70535156 2.42105469 -9.71148437 2.24445312 -8.6875 2.0625 C-7.70136719 1.88847656 -6.71523437 1.71445312 -5.69921875 1.53515625 C-2.91810787 1.04253153 -2.91810787 1.04253153 0 0 Z " fill="#786996" transform="translate(75,23)"/>
<path d="M0 0 C0.66 0 1.32 0 2 0 C3.6875 2.3125 3.6875 2.3125 5 5 C4.67 5.99 4.34 6.98 4 8 C2.68 7.34 1.36 6.68 0 6 C0 4.02 0 2.04 0 0 Z " fill="#44404B" transform="translate(126,57)"/>
<path d="M0 0 C0.99 0.33 1.98 0.66 3 1 C3 1.99 3 2.98 3 4 C3.99 4.33 4.98 4.66 6 5 C6 5.99 6 6.98 6 8 C4.125 7.6875 4.125 7.6875 2 7 C0 4 0 4 0 0 Z " fill="#353438" transform="translate(131,54)"/>
<path d="M0 0 C0.99 0.33 1.98 0.66 3 1 C3.33 1.99 3.66 2.98 4 4 C2.35 5.65 0.7 7.3 -1 9 C-1 5.72724974 -0.70074844 3.153368 0 0 Z " fill="#916FD6" transform="translate(141,34)"/>
<path d="M0 0 C1.52408942 2.03211923 2.06871724 3.43917864 1.7578125 5.9765625 C0.4375 11.5625 0.4375 11.5625 -2 14 C-1.43393721 9.30976546 -0.81462495 4.65499974 0 0 Z " fill="#6945AE" transform="translate(95,84)"/>
<path d="M0 0 C1.32 0.66 2.64 1.32 4 2 C3.195625 2.61875 2.39125 3.2375 1.5625 3.875 C-1.03874519 5.74164041 -1.03874519 5.74164041 -2 8 C-2.66 8 -3.32 8 -4 8 C-4.33 7.01 -4.66 6.02 -5 5 C-4.360625 4.54625 -3.72125 4.0925 -3.0625 3.625 C-0.90297594 2.16078274 -0.90297594 2.16078274 0 0 Z " fill="#8D5DEC" transform="translate(133,43)"/>
<path d="M0 0 C2.31 0.66 4.62 1.32 7 2 C4.39308158 4.60691842 2.62392206 4.70416963 -1 5 C-1.99 4.34 -2.98 3.68 -4 3 C-2.35 2.67 -0.7 2.34 1 2 C0.67 1.34 0.34 0.68 0 0 Z " fill="#A48DD1" transform="translate(82,39)"/>
<path d="M0 0 C0.99 0.66 1.98 1.32 3 2 C2.34 3.98 1.68 5.96 1 8 C-0.32 7.34 -1.64 6.68 -3 6 C-2.01 4.02 -1.02 2.04 0 0 Z " fill="#CDC3E0" transform="translate(29,29)"/>
<path d="M0 0 C0.99 0.33 1.98 0.66 3 1 C1.25 4.875 1.25 4.875 -1 6 C-1.66 5.67 -2.32 5.34 -3 5 C-2.625 3.0625 -2.625 3.0625 -2 1 C-1.34 0.67 -0.68 0.34 0 0 Z " fill="#DED9E8" transform="translate(102,20)"/>
<path d="M0 0 C0.99 0.33 1.98 0.66 3 1 C4.6691198 4.61642624 3.65669883 8.20574012 3 12 C2.67 12 2.34 12 2 12 C1.896875 10.741875 1.79375 9.48375 1.6875 8.1875 C1.35141192 5.39500343 1.19974124 4.25566879 -0.5625 2 C-1.036875 1.67 -1.51125 1.34 -2 1 C-1.34 0.67 -0.68 0.34 0 0 Z " fill="#3D3254" transform="translate(63,136)"/>
<path d="M0 0 C2.31 0.66 4.62 1.32 7 2 C3.5647952 4.29013653 2.014669 4.17842973 -2 4 C-1.34 2.68 -0.68 1.36 0 0 Z " fill="#9C7ED6" transform="translate(92,41)"/>
<path d="M0 0 C3 1 6 2 9 3 C8.67 4.32 8.34 5.64 8 7 C5 6 5 6 3 3 C2.01 2.67 1.02 2.34 0 2 C0 1.34 0 0.68 0 0 Z " fill="#9063E9" transform="translate(98,32)"/>
<path d="M0 0 C0.433125 0.474375 0.86625 0.94875 1.3125 1.4375 C3.02309613 3.23686957 3.02309613 3.23686957 6 4 C6 4.99 6 5.98 6 7 C5.01 7 4.02 7 3 7 C3 6.34 3 5.68 3 5 C2.01 5 1.02 5 0 5 C-0.5625 3.0625 -0.5625 3.0625 -1 1 C-0.67 0.67 -0.34 0.34 0 0 Z " fill="#3F3C44" transform="translate(135,49)"/>
<path d="M0 0 C0.66 0.33 1.32 0.66 2 1 C2 1.66 2 2.32 2 3 C2.66 3.33 3.32 3.66 4 4 C4 4.66 4 5.32 4 6 C1.625 5.6875 1.625 5.6875 -1 5 C-1.66 4.01 -2.32 3.02 -3 2 C-2.01 2 -1.02 2 0 2 C0 1.34 0 0.68 0 0 Z " fill="#724FB8" transform="translate(97,65)"/>
<path d="M0 0 C0.66 0.33 1.32 0.66 2 1 C1.67 1.99 1.34 2.98 1 4 C1.33 4.99 1.66 5.98 2 7 C0.02 7.33 -1.96 7.66 -4 8 C-2.68 5.36 -1.36 2.72 0 0 Z " fill="#6C50A4" transform="translate(15,30)"/>
<path d="M0 0 C0.33 0.66 0.66 1.32 1 2 C0.67 2.66 0.34 3.32 0 4 C-0.66 4 -1.32 4 -2 4 C-2 4.66 -2 5.32 -2 6 C-3.98 6.99 -3.98 6.99 -6 8 C-6 6.68 -6 5.36 -6 4 C-3 1.75 -3 1.75 0 0 Z " fill="#847B95" transform="translate(99,21)"/>
<path d="M0 0 C3.93673644 1.31224548 6.22719294 2.91910327 9 6 C2.35384615 4.52307692 2.35384615 4.52307692 0.5625 1.875 C0.376875 1.25625 0.19125 0.6375 0 0 Z " fill="#65606E" transform="translate(115,13)"/>
<path d="M0 0 C0.99 0.99 1.98 1.98 3 3 C2.34 3.66 1.68 4.32 1 5 C0.01 4.67 -0.98 4.34 -2 4 C-2.33 3.01 -2.66 2.02 -3 1 C-2.01 0.67 -1.02 0.34 0 0 Z " fill="#706388" transform="translate(131,63)"/>
<path d="M0 0 C0 1.98 0 3.96 0 6 C-1.32 6 -2.64 6 -4 6 C-3.625 3.5625 -3.625 3.5625 -3 1 C-1 0 -1 0 0 0 Z " fill="#4C4657" transform="translate(124,59)"/>
<path d="M0 0 C0.66 0.33 1.32 0.66 2 1 C0.02579865 3.52259061 -0.96745642 3.9929808 -4.1875 4.6875 C-5.5796875 4.8421875 -5.5796875 4.8421875 -7 5 C-5.47058649 1.94117299 -3.05780454 1.31048766 0 0 Z " fill="#5C4F77" transform="translate(164,27)"/>
<path d="M0 0 C2.97 0.33 5.94 0.66 9 1 C9 1.99 9 2.98 9 4 C8.01 4 7.02 4 6 4 C6 3.34 6 2.68 6 2 C3.03 1.505 3.03 1.505 0 1 C0 0.67 0 0.34 0 0 Z " fill="#C9BCE2" transform="translate(43,19)"/>
</svg>
